<?xml version="1.0" standalone="no"?>
<!DOCTYPE svg PUBLIC "-//W3C//DTD SVG 20010904//EN"
 "http://www.w3.org/TR/2001/REC-SVG-20010904/DTD/svg10.dtd">
<svg version="1.0" xmlns="http://www.w3.org/2000/svg"
 width="1158.000000pt" height="1226.000000pt" viewBox="0 0 1158.000000 1226.000000"
 preserveAspectRatio="xMidYMid meet">
<metadata>
Created by potrace 1.16, written by Peter Selinger 2001-2019
</metadata>
<g transform="translate(0.000000,1226.000000) scale(0.100000,-0.100000)"
fill="#000000" stroke="none">
<path d="M1223 12236 c-34 -45 -57 -77 -67 -96 -6 -10 -37 -55 -68 -100 -32
-45 -58 -85 -58 -89 0 -4 -13 -20 -30 -36 -16 -16 -30 -34 -30 -40 0 -6 -9
-18 -20 -28 -11 -9 -20 -23 -20 -30 0 -7 -9 -23 -20 -35 -12 -12 -19 -22 -16
-22 3 0 -8 -15 -25 -32 -16 -18 -29 -38 -29 -44 0 -7 -4 -14 -8 -16 -5 -1 -33
-39 -62 -83 -29 -44 -56 -82 -60 -85 -3 -3 -17 -23 -30 -45 -13 -22 -30 -46
-37 -53 -7 -7 -13 -18 -13 -23 0 -6 -11 -25 -25 -43 -14 -18 -22 -36 -17 -40
4 -4 0 -6 -8 -4 -8 2 -14 -2 -13 -9 2 -6 -6 -15 -17 -18 -11 -4 -18 -10 -15
-15 2 -4 -9 -25 -25 -46 -17 -22 -37 -48 -45 -59 -9 -11 -14 -28 -11 -38 2
-10 0 -14 -6 -11 -13 8 -57 -45 -58 -69 0 -10 -4 -15 -10 -12 -9 6 -14 -8 -11
-27 0 -5 -4 -8 -9 -8 -6 0 -10 -7 -10 -16 0 -8 -3 -13 -7 -11 -5 3 -18 -10
-30 -29 -18 -27 -18 -32 -5 -28 10 3 7 -1 -6 -7 -12 -7 -22 -15 -22 -19 0 -4
-9 -17 -20 -30 -11 -13 -20 -29 -20 -36 0 -7 -9 -18 -21 -24 -11 -7 -18 -18
-15 -25 3 -8 0 -17 -6 -21 -7 -4 -8 -3 -4 4 4 7 3 12 -2 12 -6 0 -13 -12 -17
-27 -3 -15 -15 -33 -26 -41 -10 -7 -19 -20 -19 -28 0 -8 -4 -14 -10 -14 -5 0
-10 -7 -10 -15 0 -9 -7 -18 -15 -21 -8 -4 -15 -12 -15 -19 0 -8 -7 -21 -16
-29 -8 -9 -12 -21 -8 -27 4 -8 3 -9 -5 -5 -6 4 -14 0 -18 -11 -4 -10 -13 -24
-20 -31 -18 -19 -19 -262 0 -262 8 0 9 -2 1 -8 -7 -4 -12 -45 -13 -102 -1 -52
1 -91 6 -86 4 4 8 11 8 14 2 20 18 52 26 52 5 0 9 5 9 10 0 15 77 117 96 128
9 5 16 13 15 18 0 12 42 74 52 74 4 0 7 5 7 11 0 6 22 39 48 73 27 33 69 90
94 126 25 36 55 74 65 85 10 11 28 35 38 53 11 17 23 32 27 32 4 0 15 16 24
35 9 19 20 35 24 35 5 0 19 17 31 38 13 20 26 39 29 42 3 3 27 35 53 72 26 36
53 73 61 80 7 8 21 29 30 47 20 37 56 81 65 78 3 -2 21 13 39 31 18 19 26 32
17 29 -8 -4 -15 -2 -15 3 0 6 4 10 10 10 5 0 17 14 26 31 9 18 27 42 42 55 14
14 23 27 20 30 -8 7 36 54 50 54 6 0 14 10 18 23 8 26 39 59 48 50 3 -4 6 2 6
13 0 16 2 17 10 4 8 -13 10 -12 10 3 0 12 4 16 13 11 9 -6 9 -4 -1 8 -11 14
-10 17 7 23 13 4 21 15 21 29 0 29 43 69 76 71 14 0 28 -3 30 -7 3 -4 11 -5
20 -1 11 4 13 1 6 -18 -10 -27 -6 -49 10 -49 6 0 8 7 4 15 -3 8 0 15 6 15 7 0
6 5 -2 15 -10 12 -10 15 1 15 8 0 5 6 -7 14 -16 13 -17 17 -5 28 10 9 12 9 7
1 -8 -15 3 -17 24 -3 13 8 13 11 1 22 -8 7 -11 9 -8 3 3 -6 -13 -11 -39 -13
-26 -1 -44 2 -44 8 0 6 4 9 9 5 10 -6 25 12 26 30 0 21 45 21 45 -1 0 -8 5
-12 10 -9 22 14 40 -17 40 -70 0 -28 -3 -55 -7 -58 -13 -14 -24 -205 -12 -213
4 -2 12 40 19 94 14 111 18 136 21 140 3 3 10 100 9 139 0 18 5 35 12 39 12 8
11 -13 -17 -283 -14 -137 -31 -223 -36 -183 -1 8 -1 21 0 29 2 7 -2 10 -8 6
-14 -8 -14 -55 -1 -55 6 0 10 -5 10 -11 0 -5 -4 -8 -9 -4 -9 5 -14 -13 -25
-93 -3 -16 0 -20 7 -13 6 6 10 26 10 46 0 21 4 32 9 27 5 -5 6 -37 2 -73 -6
-50 -9 -59 -15 -39 -8 29 -10 27 -14 -20 -2 -19 1 -40 7 -47 5 -7 7 -20 4 -30
-3 -10 -8 -47 -11 -83 -8 -88 -33 -319 -50 -460 -7 -63 -17 -142 -20 -175 -5
-48 -31 -268 -36 -310 -1 -5 -5 4 -9 20 -5 19 -7 3 -4 -45 2 -41 0 -65 -4 -52
-4 14 -7 -16 -8 -73 0 -54 -5 -100 -11 -103 -15 -10 -27 -96 -12 -86 8 5 9 3
3 -7 -5 -8 -7 -38 -6 -66 3 -36 0 -53 -8 -53 -7 0 -10 -7 -7 -15 4 -8 2 -17
-3 -20 -5 -3 -8 -24 -7 -46 2 -22 -1 -43 -5 -45 -4 -3 -8 -21 -8 -40 0 -19 -4
-65 -10 -102 -9 -64 -33 -277 -45 -407 -3 -33 -10 -89 -15 -125 -5 -36 -19
-150 -31 -255 -11 -104 -22 -191 -24 -193 -2 -2 -6 6 -10 17 -3 12 -21 24 -43
31 -20 6 -44 14 -52 17 -8 4 -19 5 -25 4 -5 -1 1 8 14 19 l24 21 17 -27 c13
-18 19 -22 23 -12 5 10 9 9 20 -5 14 -17 15 -17 15 5 0 13 2 38 4 56 2 18 0
32 -6 32 -6 0 -5 4 3 9 10 7 16 33 19 81 2 43 0 70 -6 66 -5 -3 -7 -17 -4 -31
3 -21 0 -27 -17 -32 -16 -4 -20 -11 -16 -32 3 -14 2 -20 -1 -13 -3 6 -10 10
-15 7 -5 -4 -6 2 -2 11 4 12 3 15 -6 10 -7 -5 -10 -18 -7 -31 6 -25 -2 -58
-13 -51 -3 2 -5 18 -5 35 1 17 2 47 3 66 1 29 5 35 22 35 15 0 19 -5 15 -15
-4 -10 1 -15 14 -15 11 0 20 5 20 11 0 5 -5 7 -10 4 -5 -3 -10 1 -10 9 0 11
-9 16 -28 16 -32 0 -52 26 -42 55 8 21 9 21 25 -30 2 -8 10 -15 16 -15 8 0 8
4 -1 15 -6 8 -9 19 -5 25 3 5 2 10 -3 10 -19 0 -36 169 -18 182 6 4 6 16 -1
30 -10 23 -10 48 3 114 4 19 1 34 -8 41 -10 9 -13 3 -13 -35 0 -29 -5 -46 -13
-48 -7 -1 -8 0 -3 2 6 3 7 12 4 20 -3 7 -8 12 -12 9 -9 -5 -7 32 2 41 13 14 7
26 -7 15 -10 -8 -16 -9 -21 -1 -3 6 -11 7 -17 4 -7 -4 -8 -2 -4 5 4 6 11 9 16
6 5 -3 11 -1 15 5 4 6 11 8 16 5 5 -3 6 2 2 11 -6 15 -7 15 -18 1 -10 -14 -14
-14 -32 -2 -22 16 -35 11 -26 -11 3 -8 -1 -14 -10 -14 -8 0 -17 6 -20 13 -3 9
-7 9 -19 -1 -17 -13 -15 -68 4 -107 9 -19 8 -19 -6 -1 -15 18 -38 14 -35 -7 1
-7 -1 -25 -6 -41 -6 -23 -4 -32 10 -43 18 -12 18 -13 1 -13 -12 0 -16 -5 -13
-14 3 -8 0 -20 -8 -26 -9 -7 -12 -27 -10 -56 2 -24 0 -42 -5 -39 -4 3 -4 -11
0 -30 6 -25 4 -38 -6 -46 -11 -9 -14 -8 -15 7 -1 11 -2 24 -4 29 -1 6 -3 20
-3 33 -3 33 -15 27 -35 -19 -29 -67 -93 -146 -226 -280 -69 -70 -146 -150
-171 -178 -51 -57 -106 -89 -123 -72 -8 8 -7 17 1 33 12 23 33 111 31 125 -1
5 0 10 1 13 5 14 12 59 30 200 11 85 25 182 30 215 5 33 14 107 20 165 6 58
13 116 15 130 59 369 82 603 75 767 -2 55 1 75 13 87 8 9 19 16 23 16 11 0 74
50 73 58 -3 21 3 31 16 26 8 -4 15 -2 15 3 0 4 19 29 42 55 55 60 128 154 128
165 0 5 -9 9 -19 9 -11 0 -17 -4 -15 -8 3 -5 -2 -15 -10 -24 -9 -8 -16 -12
-16 -7 -1 4 -8 -4 -16 -19 -8 -16 -22 -28 -30 -28 -8 0 -12 4 -9 10 3 6 -1 7
-10 4 -14 -6 -14 -8 2 -20 16 -12 14 -13 -17 -13 -19 0 -30 3 -23 5 7 3 9 12
6 20 -3 8 1 14 11 14 9 0 16 6 16 14 0 8 7 17 16 20 12 5 14 10 5 20 -6 7 -8
16 -4 19 3 4 -1 9 -10 13 -21 8 -6 40 23 49 11 4 18 11 15 16 -6 8 24 47 32
42 2 -2 8 -3 14 -3 8 0 7 5 -1 16 -11 13 -10 16 8 20 13 4 19 12 17 23 -2 10
5 24 16 32 10 7 19 19 19 26 0 6 9 14 19 18 11 3 23 15 26 26 4 10 15 24 25
29 11 6 17 16 15 23 -3 6 9 28 26 47 17 19 49 60 71 90 23 30 55 69 72 86 17
17 32 37 34 44 2 7 31 47 65 88 34 42 67 84 72 92 26 42 80 110 87 110 4 0 8
11 8 24 0 14 4 35 9 49 10 26 1 50 -15 39 -5 -4 -26 -33 -47 -64 -21 -31 -43
-63 -50 -70 -7 -7 -22 -26 -33 -43 -21 -33 -39 -56 -70 -91 -12 -13 -48 -58
-80 -100 -32 -43 -82 -105 -109 -138 -28 -34 -62 -77 -75 -96 -13 -19 -27 -37
-30 -40 -3 -3 -17 -21 -32 -42 -15 -20 -34 -42 -41 -50 -7 -7 -38 -47 -70 -88
-87 -115 -101 -132 -119 -149 -10 -8 -18 -19 -18 -24 0 -6 -112 -150 -205
-262 -13 -16 -25 -36 -25 -42 0 -7 -4 -13 -9 -13 -4 0 -21 -18 -36 -40 -15
-22 -30 -38 -33 -35 -3 3 -12 -9 -19 -26 -10 -25 -13 -218 -13 -983 l0 -951
43 0 c23 0 56 -3 72 -5 25 -4 31 -1 33 18 2 12 10 22 19 22 11 0 14 -6 9 -24
-5 -20 -1 -26 26 -35 43 -15 68 -14 68 4 0 8 5 15 10 15 6 0 10 -7 8 -16 -3
-17 10 -28 54 -44 51 -18 74 -119 42 -182 -9 -17 -20 -77 -25 -137 -5 -58 -11
-124 -14 -146 -2 -22 -4 -48 -4 -58 -1 -16 -6 -18 -43 -12 -52 9 -118 34 -118
45 0 5 5 12 10 15 6 4 10 14 9 23 -1 10 0 19 1 22 1 3 3 25 5 50 1 25 6 73 10
106 10 88 10 86 1 127 -5 20 -12 37 -17 37 -5 0 -9 5 -9 11 0 6 7 9 15 6 22
-9 31 14 11 28 -15 11 -14 13 8 19 18 4 23 11 19 26 -8 31 -28 43 -42 26 -15
-18 -21 -59 -26 -206 -2 -62 -12 -148 -21 -190 -10 -41 -17 -78 -16 -82 1 -5
-30 -8 -68 -8 -56 0 -70 -3 -70 -15 0 -8 5 -15 12 -15 9 0 9 -3 0 -12 -9 -9
-12 -99 -12 -345 l0 -332 39 -11 c28 -7 55 -27 90 -66 28 -31 51 -60 51 -65 0
-21 84 -98 133 -123 29 -14 48 -26 43 -26 -5 0 -3 -7 4 -15 19 -23 36 -18 50
15 7 16 16 30 21 30 5 0 21 13 35 30 19 21 33 28 48 24 14 -3 28 2 40 15 11
12 23 21 28 21 10 0 5 -25 -39 -170 -48 -156 -62 -197 -62 -185 -1 6 -9 -3
-20 -18 -15 -24 -20 -26 -30 -13 -23 28 12 126 44 126 8 0 15 8 15 18 0 25
-33 54 -53 46 -22 -8 -56 -103 -59 -159 0 -25 -5 -45 -9 -45 -4 0 -5 -8 -2
-19 3 -10 0 -22 -5 -25 -6 -4 -8 2 -5 14 3 11 0 20 -6 20 -6 0 -11 -5 -11 -11
0 -5 -5 -7 -11 -3 -8 5 -6 10 7 18 20 12 26 56 9 68 -6 5 -5 8 3 8 6 0 12 7
12 16 0 8 -4 12 -10 9 -7 -4 -7 3 0 20 6 14 12 46 14 69 4 37 2 45 -17 55 -12
6 -14 9 -5 7 17 -5 24 5 12 17 -13 13 -34 -7 -34 -32 0 -18 3 -22 9 -12 6 9
11 10 15 2 4 -6 2 -11 -4 -11 -6 0 -8 -6 -4 -12 4 -7 -3 -4 -15 7 -21 18 -23
18 -32 2 -6 -9 -20 -17 -32 -17 -19 -1 -20 -2 -5 -10 11 -7 26 -6 45 1 23 8
26 8 15 -3 -7 -7 -32 -12 -55 -12 -23 0 -34 -1 -24 -4 9 -2 15 -8 12 -13 -4
-5 5 -5 20 1 33 13 32 13 32 -5 0 -8 -4 -15 -8 -15 -4 0 -6 -9 -4 -20 2 -12 0
-18 -6 -14 -6 3 -13 -4 -16 -16 l-6 -22 -13 23 c-14 27 -20 19 -27 -36 -4 -28
-4 -28 -6 5 -1 29 -7 39 -33 54 -18 9 -25 11 -16 3 10 -8 18 -20 18 -26 0 -7
4 -9 10 -6 5 3 10 1 10 -4 0 -6 -9 -11 -20 -11 -17 0 -19 -4 -14 -26 5 -20 4
-25 -5 -19 -7 4 -11 18 -8 31 4 23 2 24 -39 21 -48 -4 -56 4 -21 21 21 10 20
11 -13 12 -19 1 -28 4 -18 7 9 2 19 11 22 19 3 8 2 13 -3 10 -5 -3 -11 2 -13
12 -3 10 0 19 6 20 6 0 26 2 44 3 17 1 32 5 32 9 0 4 -16 6 -36 3 -47 -6 -84
4 -84 23 0 9 -6 14 -12 12 -16 -6 -18 -140 -3 -150 6 -5 5 -8 -2 -8 -10 0 -13
-613 -13 -3030 l0 -3030 701 0 701 0 62 30 c35 16 157 61 272 99 212 70 356
101 470 101 97 0 187 63 325 232 52 62 166 136 233 150 46 10 60 9 100 -6 48
-18 100 -66 126 -115 21 -39 98 -148 110 -156 6 -4 10 8 10 28 0 19 3 49 6 66
l7 31 73 0 c68 0 75 2 90 26 23 35 114 102 206 153 87 47 179 141 139 141 -12
0 -51 62 -56 88 -5 27 29 98 53 111 33 18 76 13 110 -13 l32 -23 -41 -6 c-28
-4 -52 -16 -74 -37 -30 -29 -32 -35 -23 -61 17 -50 73 -28 73 30 0 21 5 27 26
29 20 2 43 26 95 95 37 51 73 97 79 102 6 6 20 25 30 43 11 17 23 32 27 32 4
0 8 7 8 15 0 8 4 15 8 15 9 0 145 170 140 175 -2 2 -61 8 -133 13 l-130 10
140 -2 140 -2 57 74 56 74 -19 37 c-46 89 27 169 126 138 16 -5 28 4 57 40
l37 47 -32 28 c-18 15 -42 31 -55 34 -13 4 -49 32 -80 63 -31 31 -92 88 -135
126 -43 39 -80 72 -82 74 -10 9 -151 18 -159 10 -5 -4 -9 -21 -10 -36 -2 -42
-31 -37 -33 5 -1 19 -3 35 -5 37 -2 2 -77 9 -168 16 -91 6 -169 16 -175 20
-12 12 1 11 270 -10 127 -10 231 -18 232 -17 4 3 -186 146 -195 147 -4 0 -26
24 -50 52 -42 51 -43 54 -38 107 4 30 8 84 11 120 12 157 40 354 74 520 5 25
12 59 14 75 3 17 12 63 20 103 14 68 10 91 -13 77 -6 -3 -10 -13 -10 -21 0
-24 -48 -17 -56 8 -6 19 -7 19 -16 5 -9 -18 -48 -21 -83 -8 -16 6 -19 16 -16
51 2 32 -1 41 -11 38 -7 -3 -14 -21 -16 -41 -4 -49 -20 -47 -24 3 -2 22 -7 40
-13 40 -5 0 -11 -18 -13 -40 -3 -43 -15 -51 -31 -23 -8 13 -13 15 -19 6 -4 -7
-16 -11 -27 -9 -17 2 -21 12 -23 54 -3 49 -2 52 21 52 14 0 31 -10 40 -23 13
-18 16 -19 16 -4 1 9 9 17 19 17 46 -1 200 -28 219 -38 17 -9 22 -9 25 0 4 10
10 10 31 1 32 -15 30 -19 72 187 8 41 18 82 21 90 4 8 8 25 10 37 1 13 5 31 8
40 8 26 34 252 51 453 9 96 22 204 30 240 8 36 19 92 24 125 6 33 13 76 17 95
4 19 9 64 13 100 l6 65 56 3 c59 3 58 4 60 -51 0 -9 3 -16 7 -14 9 5 43 -30
40 -40 -2 -5 139 -11 312 -14 302 -6 510 -15 557 -25 15 -3 21 -10 18 -23 -2
-11 3 -22 12 -25 19 -8 35 2 27 16 -4 6 -2 8 4 4 6 -3 37 1 69 9 60 17 65 16
418 -5 447 -27 552 -30 574 -12 14 11 14 11 0 7 -10 -4 -16 0 -16 9 0 8 4 13
9 10 8 -5 12 9 9 33 -1 6 3 14 9 18 8 5 8 11 0 20 -13 16 -3 58 11 49 6 -3 8
-12 5 -20 -3 -8 -2 -14 3 -14 15 0 21 13 10 26 -8 10 -5 23 11 49 12 20 20 44
17 55 -3 11 1 24 9 31 16 13 19 49 4 49 -7 0 -7 6 -1 19 6 10 7 21 4 25 -3 3
-1 6 5 6 7 0 12 6 12 14 0 8 5 16 11 18 7 2 12 21 13 41 1 32 -2 36 -18 31
-18 -6 -18 -5 2 21 12 15 19 32 16 37 -4 6 0 14 7 19 11 7 11 9 1 9 -7 0 -10
5 -6 11 3 6 1 15 -6 19 -11 7 -10 11 2 24 9 8 18 12 22 9 3 -4 6 -1 6 5 0 7
-4 12 -10 12 -15 0 -12 27 5 33 8 4 12 15 10 27 -3 13 2 20 13 21 14 0 13 2
-3 9 -11 5 -16 9 -12 9 5 1 1 8 -7 17 -23 22 -20 33 7 27 12 -3 18 -1 12 4 -9
7 -12 15 -16 41 -4 21 2 42 10 38 5 -3 11 1 15 9 3 8 1 15 -5 15 -6 0 -6 7 1
20 7 13 7 20 1 20 -21 0 2 30 27 37 14 3 37 12 51 19 33 17 50 18 57 1 3 -8
20 -19 38 -27 25 -9 32 -17 29 -32 -4 -14 -1 -17 11 -12 12 4 16 0 16 -16 0
-12 4 -18 10 -15 7 4 9 -3 6 -21 -3 -15 -11 -31 -17 -35 -7 -4 -8 -12 -4 -20
6 -8 4 -11 -6 -7 -20 8 -41 -16 -26 -31 16 -16 0 -26 -18 -11 -14 11 -15 10
-7 -11 12 -32 5 -49 -19 -49 -11 0 -17 -5 -14 -10 4 -6 11 -8 16 -5 5 4 9 2 9
-4 0 -5 -10 -11 -22 -13 -26 -4 -33 -47 -9 -65 14 -11 14 -14 1 -23 -8 -5 -11
-10 -6 -10 5 0 3 -7 -4 -15 -7 -8 -9 -15 -5 -15 5 0 0 -9 -10 -20 -18 -20 -18
-21 5 -45 19 -21 21 -25 7 -25 -15 0 -22 -11 -18 -32 0 -5 -7 -8 -16 -8 -17
-1 -17 -1 0 -11 9 -6 15 -15 12 -20 -4 -5 -12 -6 -18 -3 -9 5 -9 4 0 -6 9 -10
15 -10 28 4 9 9 14 20 10 26 -3 6 1 7 10 4 11 -5 13 -10 5 -19 -8 -9 -8 -15 0
-20 5 -3 7 -17 4 -31 -5 -18 -1 -29 12 -39 17 -13 17 -16 4 -25 -13 -8 -13
-10 3 -10 9 0 17 5 17 12 0 25 10 -1 15 -38 4 -31 1 -42 -14 -51 -16 -10 -22
-9 -33 4 -11 14 -10 15 10 8 22 -6 23 -5 12 15 -12 23 -29 17 -33 -11 -2 -8
-6 -19 -9 -25 -4 -6 2 -10 15 -10 16 1 23 -6 25 -24 2 -19 1 -22 -7 -10 -13
20 -24 7 -16 -19 3 -12 11 -18 17 -15 6 4 8 -2 4 -17 -3 -13 -3 -18 0 -11 6
13 24 7 24 -9 0 -18 -31 -8 -39 13 -4 12 -10 17 -14 11 -4 -6 2 -22 14 -36
l20 -26 -33 11 c-18 6 -27 13 -20 16 10 3 10 7 0 19 -10 12 -9 17 3 27 11 7
14 17 8 31 -7 18 -8 18 -8 2 -1 -10 -5 -15 -11 -12 -5 3 -7 0 -4 -8 3 -8 0
-18 -6 -22 -9 -6 -9 -10 1 -16 10 -6 11 -9 2 -9 -7 0 -13 -7 -13 -15 0 -8 -7
-15 -16 -15 -8 0 -12 -5 -9 -10 7 -11 190 -8 255 4 19 3 54 8 77 11 23 2 60 9
82 15 38 10 40 12 36 45 -4 28 -1 35 17 41 21 6 21 7 3 20 -23 17 -45 2 -38
-26 3 -11 1 -20 -5 -20 -5 0 -9 20 -8 45 1 36 4 44 16 39 8 -4 25 -9 37 -11
13 -3 20 -9 17 -14 -3 -5 2 -9 10 -9 8 0 31 -16 52 -35 33 -32 37 -52 4 -22
-12 10 -12 9 0 -8 8 -11 15 -21 16 -23 2 -3 229 32 334 53 156 30 339 55 438
60 62 3 111 10 125 19 26 16 85 30 227 51 58 9 130 22 160 28 30 6 61 11 68
10 6 0 12 3 12 8 0 5 10 8 23 8 12 -1 72 6 132 15 61 9 126 18 146 20 20 2 47
7 60 12 13 4 32 7 41 5 9 -1 53 19 98 44 104 59 155 65 179 20 24 -44 57 -128
86 -223 26 -81 27 -83 48 -69 11 7 26 22 31 33 6 10 14 21 17 24 21 16 46 103
64 219 3 18 10 41 15 51 6 10 10 27 10 38 0 27 34 54 62 50 30 -4 30 -25 1
-196 -27 -159 -56 -225 -130 -300 -52 -53 -63 -78 -42 -99 6 -6 12 -21 14 -34
19 -148 158 -578 184 -571 6 1 11 -3 11 -9 0 -5 5 -7 10 -4 17 11 31 -5 18
-19 -11 -11 -15 -10 -25 3 -24 34 -22 1 4 -49 25 -47 28 -50 36 -32 10 21 10
21 49 -9 23 -19 45 -29 54 -25 13 5 14 9 4 21 -7 8 -16 13 -20 10 -5 -3 -12
-1 -15 5 -4 6 -3 10 2 9 27 -5 33 2 23 21 -6 11 -7 20 -2 20 5 0 8 10 6 23 -1
12 -3 33 -4 47 -1 23 -2 23 -10 5 -7 -16 -9 -13 -9 16 -1 20 2 39 6 43 4 4 9
27 10 52 1 24 11 64 22 88 10 25 16 48 13 52 -4 4 -2 4 5 0 6 -3 10 -16 8 -27
-3 -12 0 -30 6 -41 7 -13 7 -24 1 -30 -7 -7 -7 -21 0 -42 5 -17 11 -79 13
-139 1 -59 7 -113 12 -120 5 -6 8 -18 7 -24 -1 -7 -2 -18 -3 -24 0 -5 -6 -7
-11 -4 -7 4 -8 -3 -4 -22 9 -36 20 -51 47 -59 12 -4 35 -17 50 -30 16 -13 35
-24 43 -24 20 0 51 -33 78 -83 43 -79 68 -122 81 -137 6 -8 25 -42 42 -75 81
-165 182 -330 195 -317 21 22 1 258 -27 313 -16 29 -60 49 -111 49 -38 0 -50
12 -29 30 11 9 29 10 76 1 52 -9 67 -16 95 -48 24 -28 33 -48 34 -75 0 -34 20
-68 40 -68 5 0 3 -15 -5 -34 -28 -67 -14 -307 20 -360 9 -13 18 -32 20 -42 3
-11 11 -43 19 -72 16 -54 24 -198 12 -209 -3 -3 -6 14 -6 40 0 85 -39 227 -62
227 -5 0 -7 -3 -4 -8 2 -4 7 -81 11 -172 7 -171 0 -217 -38 -249 -11 -8 -15
-38 -16 -110 -2 -131 3 -151 38 -148 15 2 32 6 38 10 14 9 23 -2 16 -19 -3 -9
-13 -12 -24 -9 -21 7 -59 -14 -59 -32 0 -12 19 -18 45 -14 12 2 -30 -36 -47
-41 -27 -9 -41 -294 -15 -310 7 -4 13 -36 14 -85 1 -43 5 -107 8 -143 9 -85 0
-94 -92 -88 -39 2 -68 9 -71 16 -2 7 -9 9 -15 5 -7 -4 -6 1 2 10 12 15 10 18
-14 27 -14 5 -36 10 -47 10 -19 0 -20 -1 -4 -25 31 -47 77 -129 107 -193 26
-53 37 -66 79 -87 28 -14 83 -45 123 -69 42 -25 113 -55 166 -70 51 -14 94
-26 96 -26 12 0 -5 197 -24 270 -12 47 -29 114 -38 150 -29 118 -78 254 -140
390 -39 82 -66 191 -52 204 9 8 10 6 6 -6 -4 -10 -2 -18 3 -18 6 0 10 -7 10
-15 0 -8 18 -56 41 -107 70 -160 127 -310 149 -393 57 -211 72 -287 77 -387
l6 -107 56 -27 c104 -51 195 -105 337 -200 77 -52 151 -94 163 -94 70 0 186
47 290 117 19 13 51 26 73 29 l38 7 0 632 c0 497 -3 634 -12 638 -10 4 -10 6
0 6 7 1 11 5 7 11 -3 5 -12 7 -20 4 -8 -4 -12 -11 -8 -17 3 -5 1 -7 -5 -3 -6
3 -14 2 -17 -4 -5 -8 -11 -7 -21 1 -8 6 -14 8 -14 3 0 -5 -5 -2 -10 6 -5 8
-10 10 -10 5 0 -6 -19 -11 -42 -11 -24 0 -52 -3 -63 -8 -16 -6 -17 -6 -5 3 12
9 10 11 -12 11 -16 0 -28 -5 -28 -11 0 -6 -7 -3 -16 5 -17 17 -36 21 -48 9
-14 -14 -146 -20 -166 -8 -8 5 -11 4 -7 -2 4 -6 0 -13 -8 -17 -8 -3 -19 2 -24
12 -7 13 -13 14 -21 5 -8 -7 -22 -8 -43 -2 -17 5 -40 6 -49 3 -13 -4 -18 0
-19 13 0 11 -3 13 -6 5 -5 -13 -93 -7 -123 9 -9 5 -22 1 -34 -9 -18 -16 -18
-16 -12 8 3 14 3 19 0 13 -3 -7 -23 -13 -45 -13 -44 0 -44 0 -54 113 l-7 67
39 0 c41 1 48 1 443 31 146 10 299 22 340 24 41 3 85 8 98 11 l22 4 0 895 0
895 -22 -14 c-13 -7 -45 -17 -73 -21 -27 -4 -95 -15 -150 -26 -326 -62 -478
-90 -515 -95 -116 -16 -265 -46 -277 -55 -7 -7 -15 -10 -18 -8 -4 5 -20 186
-30 339 -3 47 -8 117 -10 155 -3 39 -7 126 -11 195 -3 69 -7 127 -9 130 -2 3
-6 84 -10 180 l-7 175 108 22 c60 13 139 29 175 37 36 8 77 17 90 20 72 15
266 58 344 76 50 12 133 30 185 40 52 10 109 23 125 29 17 5 47 12 68 16 31 5
37 10 37 30 0 22 -3 23 -37 18 -21 -3 -63 -12 -93 -20 -54 -15 -124 -31 -310
-72 -163 -36 -263 -59 -325 -75 -33 -9 -73 -19 -90 -22 -16 -3 -81 -16 -142
-30 -62 -14 -117 -23 -122 -20 -12 8 -20 86 -23 236 l-3 125 60 12 c33 6 103
23 155 36 138 37 291 75 320 81 14 2 54 12 90 21 36 9 73 19 84 21 10 2 64 15
120 30 55 14 128 32 161 40 33 7 80 19 105 26 l45 14 3 142 c2 122 0 142 -13
142 -8 0 -57 -11 -108 -25 -590 -160 -1005 -265 -1023 -261 -30 8 -35 25 -41
137 -2 53 -5 105 -7 115 -1 12 -24 30 -61 49 -53 27 -70 30 -150 30 l-90 0 1
-30 c5 -156 16 -432 19 -444 4 -23 18 -315 19 -396 l1 -70 -42 1 c-23 0 -40
-4 -37 -8 11 -17 -19 -7 -52 18 -25 20 -34 23 -34 11 0 -12 -5 -13 -35 -3 -19
7 -43 20 -54 30 -12 11 -29 16 -41 13 -11 -3 -23 -1 -26 4 -3 5 -15 9 -27 9
-17 0 -19 2 -8 13 8 8 44 12 111 11 l98 -1 -10 26 c-6 14 -19 44 -28 66 -32
70 -32 78 -10 95 16 12 20 27 21 70 0 56 -7 258 -13 363 -2 37 1 66 9 77 9 12
10 21 3 25 -5 3 -10 17 -10 30 0 13 -5 27 -11 31 -8 5 -8 8 0 13 7 5 4 14 -9
29 -16 17 -27 21 -48 16 -15 -4 -30 -12 -34 -17 -4 -7 -11 -7 -21 1 -10 9 -22
7 -52 -8 -50 -25 -81 -26 -88 -1 -4 16 -10 18 -48 10 -24 -4 -47 -8 -50 -9 -4
0 -6 -29 -5 -65 1 -69 14 -90 48 -79 12 4 19 -2 24 -20 3 -14 10 -23 15 -20 5
3 6 -2 2 -11 -4 -13 -16 -16 -44 -13 -20 2 -35 0 -33 -3 2 -4 0 -9 -5 -11 -14
-5 -26 -98 -12 -98 6 0 11 -6 11 -14 0 -8 7 -17 16 -20 25 -10 54 -7 54 5 0 8
5 7 15 -1 13 -11 13 -15 3 -21 -8 -5 -6 -8 9 -6 17 1 20 5 12 19 -7 13 -3 22
21 39 34 26 39 61 14 98 -13 18 -19 20 -26 10 -7 -11 -8 -9 -4 4 3 10 6 40 6
66 0 41 3 49 25 59 33 15 51 15 53 0 0 -13 3 -27 18 -82 5 -22 3 -32 -10 -42
-17 -12 -16 -13 3 -24 12 -6 21 -17 21 -26 0 -21 -27 -29 -46 -14 -12 11 -11
6 3 -21 10 -19 21 -36 26 -37 4 -2 5 -8 1 -13 -3 -5 0 -9 6 -9 7 0 9 -13 6
-36 -4 -22 -2 -33 4 -29 6 4 10 -6 10 -24 0 -18 -5 -31 -12 -31 -9 0 -8 -4 2
-10 12 -8 12 -10 -5 -10 -17 0 -17 -2 -5 -10 8 -5 11 -10 5 -10 -5 0 -3 -5 5
-10 11 -7 11 -10 2 -10 -7 0 -10 -5 -7 -11 4 -5 9 -25 12 -42 2 -18 13 -44 24
-59 l19 -28 -37 -34 c-38 -35 -63 -37 -63 -7 0 14 -7 17 -30 13 -25 -4 -29 -8
-24 -26 6 -23 -18 -52 -34 -42 -13 8 -73 -16 -94 -36 -23 -23 -23 -39 1 -65
20 -21 20 -21 -9 -33 -17 -7 -42 -9 -57 -6 -16 4 -41 10 -56 13 -16 3 -31 13
-35 22 -3 9 -10 19 -15 22 -5 3 -2 23 7 43 19 47 33 159 42 341 8 177 9 183
18 192 5 5 5 -35 1 -87 -4 -52 -9 -151 -11 -220 -1 -69 -5 -148 -8 -177 l-4
-52 31 6 c40 7 42 9 30 25 -6 7 -8 22 -6 33 4 19 25 238 38 405 3 41 8 94 11
117 3 23 0 51 -6 64 -9 17 -9 20 0 14 19 -12 3 222 -17 252 -9 13 -13 26 -11
29 8 8 38 -25 38 -42 0 -8 10 -14 23 -14 12 0 35 -7 51 -15 36 -19 64 -19 110
0 20 9 42 13 48 9 6 -4 8 -3 5 3 -10 16 130 53 208 56 l70 2 3 -37 3 -36 82
-7 c45 -4 112 -15 150 -24 l67 -18 -5 86 c-17 279 -18 292 -31 313 -4 7 -10
28 -14 48 -6 41 -29 46 -47 11 l-12 -25 -6 30 c-23 103 -75 215 -120 260 -18
18 -35 18 -35 0 0 -16 -24 -28 -44 -20 -8 3 -16 17 -19 30 -3 19 1 28 17 34
21 8 21 8 1 17 -11 4 -20 14 -21 21 -1 6 -2 22 -3 33 -1 21 -4 21 -73 15 -102
-10 -121 -11 -140 -2 -13 6 -18 4 -18 -7 0 -20 -22 -27 -89 -27 -58 0 -101
-21 -101 -49 0 -6 -4 -11 -8 -11 -8 0 -37 -70 -30 -74 1 -1 18 -14 36 -29 35
-28 32 -38 -2 -12 -16 12 -22 12 -28 2 -6 -9 -8 -8 -8 4 0 9 -7 19 -15 23 -8
3 -15 10 -15 16 0 6 4 9 9 5 12 -7 6 82 -7 98 -5 7 -9 27 -10 45 -2 18 -3 36
-3 40 -4 27 2 30 29 16 15 -7 43 -14 62 -14 32 0 35 3 36 31 2 35 8 44 24 34
7 -4 9 -18 6 -31 -5 -20 -3 -24 17 -24 20 0 23 4 19 25 -2 15 0 25 7 25 6 0
11 5 11 12 0 6 16 26 35 43 19 18 39 44 45 59 5 15 18 29 27 33 10 4 34 16 53
28 19 12 39 22 43 23 4 0 21 5 37 12 26 11 30 18 30 49 -1 33 -18 71 -34 71
-10 0 -76 44 -76 51 0 4 23 16 51 27 l51 22 -6 147 c-7 167 1 151 -110 211
-117 64 -181 96 -188 94 -5 -1 -8 2 -8 7 0 5 -17 16 -37 25 -21 9 -79 38 -130
65 -50 27 -103 51 -117 55 -24 6 -29 28 -11 56 9 15 -2 12 -19 -5 -18 -19 -46
-9 -46 16 0 18 10 23 39 20 7 -2 10 2 6 9 -4 7 -18 10 -31 7 -15 -3 -21 0 -16
7 11 18 8 40 -6 58 -18 22 -22 49 -10 71 16 31 -29 117 -61 117 -5 0 -17 7
-26 16 -8 9 -26 17 -39 18 -13 0 -22 4 -20 7 2 4 -3 12 -11 19 -12 10 -13 16
-3 27 10 12 9 18 -7 29 -14 11 -15 14 -4 14 8 0 20 -5 26 -11 7 -7 13 -7 17
-1 3 6 2 13 -4 17 -5 3 -10 25 -10 47 0 25 -7 49 -17 61 -11 13 -12 17 -4 12
11 -6 13 -4 8 9 -4 10 -10 29 -13 43 -4 16 -9 21 -14 13 -5 -8 -10 -2 -14 15
-8 33 -27 53 -44 47 -17 -5 -15 -22 3 -22 18 0 20 -36 3 -43 -10 -4 -10 -7 0
-18 18 -19 16 -70 -3 -63 -8 4 -15 1 -15 -6 0 -6 9 -14 20 -17 22 -6 24 -11
11 -32 -5 -8 -16 -11 -27 -7 -18 6 -18 5 -1 -8 11 -8 14 -17 8 -20 -6 -4 -18
8 -27 26 -11 22 -13 33 -5 36 13 4 15 32 2 32 -5 0 -7 15 -5 33 3 17 7 42 9
55 3 24 -13 30 -32 11 -9 -9 -20 -5 -43 15 -33 27 -50 33 -50 16 0 -16 -17
-12 -24 6 -4 12 -2 15 9 11 8 -4 17 -2 20 3 4 7 13 6 25 0 13 -7 21 -7 25 0 4
6 1 9 -7 8 -8 -2 -12 4 -10 15 2 13 -4 17 -27 17 -16 0 -41 -4 -55 -10 -21 -7
-26 -6 -26 5 0 8 -4 15 -10 15 -5 0 -10 5 -10 10 0 6 5 9 12 8 6 -2 14 5 16
15 3 15 -13 23 -41 18 -5 -1 -6 3 -2 8 3 6 12 8 20 4 8 -3 15 -1 15 5 0 5 -6
12 -14 15 -8 3 -17 19 -21 36 -4 17 -11 31 -17 31 -6 0 -8 -9 -5 -19 3 -14 1
-18 -9 -14 -8 3 -14 9 -14 13 0 9 -75 50 -91 50 -6 0 -8 -9 -4 -20 3 -11 2
-20 -4 -20 -5 0 -12 9 -16 19 -3 11 -15 23 -26 26 -29 10 -23 26 7 19 42 -11
20 13 -23 25 -44 12 -62 1 -58 -34 3 -28 -7 -32 -25 -10 -7 8 -8 15 -2 15 5 0
12 9 15 19 3 13 -1 21 -14 24 -13 4 -19 14 -20 34 0 27 -1 27 -11 6 -6 -12
-19 -23 -29 -26 -11 -3 -17 -1 -14 3 3 5 -8 19 -24 32 -16 14 -32 34 -35 45
-4 14 -19 23 -41 27 -19 4 -39 16 -45 26 -6 11 -15 20 -21 20 -6 0 -8 -4 -5
-8 2 -4 -4 -8 -15 -8 -18 0 -18 2 -5 12 9 6 13 14 9 17 -19 19 24 3 49 -18 23
-19 33 -23 44 -15 13 12 8 44 -6 35 -8 -5 -97 39 -114 56 -16 15 -39 11 -32
-7 3 -8 2 -13 -3 -10 -5 3 -11 -4 -14 -15 -4 -13 -10 -18 -17 -14 -9 6 -9 10
1 16 12 7 11 9 -1 9 -12 1 -12 3 3 14 14 11 15 15 4 19 -9 3 -14 19 -14 41 1
29 -5 40 -32 60 -18 14 -39 22 -46 20 -7 -3 -16 -1 -19 5 -4 6 -13 8 -21 4 -8
-3 -15 0 -15 6 0 6 -7 11 -15 11 -8 0 -15 5 -15 10 0 6 10 10 22 10 17 0 19 3
10 12 -15 15 -68 -2 -64 -20 1 -7 -7 -12 -18 -12 -11 0 -20 5 -20 10 0 6 6 10
14 10 16 0 31 18 23 26 -3 3 -14 1 -25 -5 -16 -8 -24 -7 -36 4 -8 8 -21 12
-29 9 -9 -3 -21 4 -29 15 -15 21 -15 21 -28 -3 -15 -29 -53 -38 -77 -20 -17
13 -17 14 0 8 28 -10 19 5 -10 18 -32 13 -38 15 -55 17 -10 1 -10 3 0 10 10 6
7 10 -12 15 -15 4 -36 16 -48 28 -14 14 -33 22 -55 21 -18 -1 -33 3 -33 8 0 5
-13 9 -28 9 -15 0 -43 11 -62 25 -19 14 -43 25 -54 25 -16 -1 -14 -4 10 -14
44 -19 50 -34 17 -42 -15 -4 -33 -11 -39 -15 -22 -18 -86 -40 -78 -28 7 12 5
12 -43 -8 -8 -3 -13 3 -13 17 0 18 -3 20 -14 11 -19 -16 -30 2 -17 27 7 14 6
19 -4 19 -7 0 -11 -6 -8 -14 3 -7 0 -13 -6 -13 -7 0 -14 7 -17 15 -4 8 -11 15
-18 15 -7 0 -30 19 -53 43 -38 38 -50 68 -53 129 0 5 -3 7 -7 7 -33 -5 -46 16
-15 24 9 3 3 5 -14 6 -65 2 -114 -47 -114 -116 0 -30 -2 -34 -14 -23 -8 6 -12
19 -9 28 4 13 3 13 -9 -2 -10 -13 -28 -20 -55 -20 -22 -1 -46 -6 -54 -13 -12
-10 -17 -8 -28 9 -8 13 -16 17 -20 10 -3 -6 -20 -12 -36 -14 -25 -2 -31 1 -33
20 -2 12 -8 22 -13 22 -6 0 -8 10 -4 23 6 22 6 22 -10 2 -12 -14 -16 -16 -15
-5 5 32 -2 38 -49 50 -38 9 -100 9 -141 0 -3 0 4 -8 15 -16 20 -16 20 -16 -2
-10 -13 4 -34 -1 -55 -14 -18 -11 -26 -20 -18 -20 10 0 11 -3 4 -8 -6 -4 -15
-22 -19 -40 -5 -26 -11 -32 -23 -27 -55 23 -141 19 -103 -4 11 -7 9 -11 -7
-20 -17 -9 -21 -9 -16 2 7 18 -75 37 -171 40 -48 2 -83 9 -110 24 -316 165
-366 194 -358 206 4 6 0 8 -11 4 -10 -4 -19 -1 -22 8 -4 8 -9 13 -13 11 -4 -3
-8 4 -8 15 -1 10 3 19 8 19 6 0 8 -4 4 -9 -3 -5 -1 -12 5 -16 5 -3 10 1 10 9
0 8 8 20 18 26 14 8 11 9 -13 4 -29 -5 -29 -5 -11 10 11 9 15 16 10 16 -12 0
-6 121 6 134 5 5 24 -1 44 -14 36 -22 90 -35 80 -19 -3 5 -15 9 -27 9 -17 0
-19 2 -8 9 8 5 20 7 27 4 6 -2 15 0 19 6 4 7 0 8 -11 4 -12 -4 -15 -3 -10 5 4
7 1 12 -7 12 -19 0 -29 24 -16 37 12 12 -3 25 -51 43 -19 8 -37 17 -40 20 -10
12 -67 45 -270 155 -69 37 -150 81 -180 97 -30 17 -89 49 -130 71 -41 22 -79
43 -85 47 -5 5 -53 30 -105 57 -52 28 -164 87 -248 131 -84 45 -157 82 -162
82 -6 0 -10 5 -10 10 0 6 -4 10 -9 10 -6 0 -63 29 -128 64 -134 72 -259 138
-383 204 -47 24 -121 63 -165 87 -44 23 -134 70 -200 105 -66 34 -138 73 -160
85 -22 12 -107 57 -190 100 -82 43 -170 89 -195 103 -25 13 -88 47 -140 75
-52 27 -117 62 -145 77 -27 15 -102 55 -165 88 -63 32 -135 71 -160 84 -25 14
-93 50 -152 81 l-106 57 -410 0 -411 0 -18 -24z m66 -286 c-11 -14 -32 -43
-47 -65 -22 -33 -111 -154 -140 -190 -30 -38 -97 -131 -97 -135 0 -5 -32 -48
-148 -205 -32 -44 -63 -79 -69 -77 -5 1 -7 -1 -4 -6 3 -5 -28 -52 -69 -106
-40 -53 -76 -92 -80 -87 -3 6 4 20 15 31 12 12 19 28 16 35 -3 9 0 12 8 9 8
-3 16 5 20 21 5 18 12 25 21 21 9 -3 12 0 9 8 -3 7 7 27 21 44 15 18 24 36 20
42 -3 6 0 7 9 4 11 -4 19 2 25 19 5 13 21 37 35 52 14 15 26 31 26 34 0 3 10
18 23 33 12 14 29 36 37 49 8 12 32 42 53 64 20 23 37 48 37 54 0 7 5 9 12 5
7 -5 9 -2 5 9 -3 9 -3 17 1 19 14 6 61 76 55 82 -4 3 -1 6 5 6 6 0 23 22 36
49 14 27 32 51 41 54 8 4 15 13 15 21 0 8 6 19 13 23 19 12 97 114 97 127 0 6
4 4 10 -4 6 -10 3 -22 -11 -40z m-708 -759 c13 7 25 7 37 0 10 -7 12 -11 4
-11 -7 0 -10 -5 -6 -11 5 -8 1 -8 -14 0 -25 13 -43 15 -23 2 17 -11 24 -41 10
-41 -5 0 -9 -12 -10 -27 l-1 -28 -7 25 c-5 17 -9 21 -14 13 -11 -18 11 -53 33
-53 10 0 21 8 23 18 3 9 5 2 6 -15 0 -18 -4 -33 -10 -33 -5 0 -7 5 -4 10 3 6
1 10 -4 10 -14 0 -14 -17 -1 -25 6 -4 6 -10 0 -18 -6 -7 -28 -37 -49 -67 -22
-30 -47 -62 -55 -71 -9 -9 -16 -19 -16 -23 0 -4 -12 -22 -27 -41 -24 -30 -28
-32 -39 -17 -8 11 -9 22 -3 35 9 15 7 17 -15 11 -15 -3 -26 -2 -26 4 0 5 11
13 25 16 14 4 25 12 25 18 0 9 -3 9 -12 0 -15 -15 -58 -16 -58 -1 0 6 5 19 10
30 11 20 40 26 40 8 0 -6 -7 -9 -15 -5 -8 3 -15 1 -15 -4 0 -6 12 -10 26 -10
19 0 25 4 20 15 -3 8 -1 15 5 15 21 0 49 -21 49 -37 0 -13 3 -14 12 -5 13 13
-5 42 -27 42 -7 0 -15 6 -18 13 -8 21 9 41 28 34 9 -4 14 -3 10 3 -3 6 1 13 9
16 21 8 21 24 0 24 -8 0 -12 -5 -8 -11 4 -8 -1 -9 -16 -4 -15 5 -20 4 -16 -4
4 -6 3 -11 -3 -11 -6 0 -22 -12 -36 -27 -14 -15 -25 -22 -25 -15 0 6 5 12 10
12 6 0 10 5 10 11 0 23 54 59 89 59 14 0 19 6 18 20 -1 20 -17 29 -17 10 0 -5
-5 -10 -10 -10 -6 0 -6 7 1 18 13 20 52 25 45 5 -7 -16 10 -17 20 -1 4 6 2 14
-4 16 -20 6 -14 43 8 49 19 5 29 23 13 23 -5 0 -9 12 -9 28 -1 15 1 21 3 15 3
-9 10 -10 24 -2z m2833 -385 c190 -96 281 -136 317 -141 53 -7 70 -26 64 -70
-2 -11 -6 -55 -10 -98 -7 -85 -12 -107 -27 -107 -6 0 -126 57 -267 126 -141
69 -276 136 -301 147 -76 36 -80 42 -80 127 0 96 9 150 25 150 7 0 132 -60
279 -134z m-1589 -78 c-4 -62 -9 -126 -11 -143 -2 -16 -13 -133 -25 -260 -12
-126 -26 -241 -32 -255 l-11 -25 -4 31 c-3 33 13 198 53 544 14 118 25 216 25
218 0 1 3 2 6 2 3 0 3 -51 -1 -112z m370 -648 c-2 -14 -7 -56 -10 -95 -6 -73
-29 -301 -45 -445 -5 -47 -14 -137 -20 -201 -16 -169 -31 -203 -25 -54 3 66 8
136 10 155 3 19 19 186 35 370 17 184 33 342 37 350 8 20 24 -47 18 -80z
m2009 -171 c115 -39 285 -126 368 -187 34 -26 74 -54 88 -63 42 -27 138 -129
154 -164 34 -72 8 -126 -68 -140 -74 -14 -309 48 -426 113 -116 63 -124 68
-200 117 -133 85 -260 232 -260 301 0 30 40 62 80 66 63 6 170 -12 264 -43z
m1336 -69 c14 -6 72 -34 129 -63 91 -45 105 -56 107 -79 2 -20 -1 -25 -12 -21
-8 3 -14 16 -14 29 l0 24 -52 -27 c-59 -31 -68 -37 -109 -75 -20 -18 -35 -25
-51 -21 -24 6 -68 33 -54 33 5 0 3 7 -4 15 -17 20 -30 19 -27 -2 2 -20 -3 -23
-34 -23 -18 0 -20 4 -15 28 l6 27 -15 -25 c-14 -25 -14 -25 -15 -2 0 12 -5 22
-11 22 -7 0 -8 -7 -4 -17 4 -10 9 -24 12 -30 6 -16 -27 -17 -60 -2 -31 14 -55
55 -41 69 7 7 21 5 43 -6 29 -15 34 -15 48 -1 12 12 13 19 3 33 -11 18 -11 18
-5 -1 5 -15 3 -17 -5 -9 -16 16 -9 55 13 68 14 8 20 8 27 -4 5 -8 10 -10 11
-5 7 49 6 55 -15 55 -34 0 -66 12 -60 21 3 5 10 6 16 3 6 -4 26 -7 45 -6 24 1
33 -3 33 -14 0 -12 6 -15 23 -10 12 3 26 6 31 6 5 0 -1 11 -14 25 l-24 26 34
-16 c19 -9 46 -20 60 -25z m-2574 -57 c22 -9 41 -17 44 -18 3 0 30 -13 60 -27
30 -14 78 -36 105 -48 28 -12 68 -30 90 -40 106 -49 338 -150 345 -150 4 0 22
-16 39 -35 25 -29 36 -34 56 -29 23 6 147 -45 415 -168 36 -17 109 -50 163
-74 54 -24 106 -50 117 -56 38 -24 45 -64 41 -238 -1 -91 -5 -168 -8 -173 -15
-25 -20 22 -15 172 4 148 3 174 -12 196 -19 28 -56 47 -384 195 -277 125 -299
133 -316 127 -20 -8 -24 -48 -41 -447 -8 -195 -17 -386 -20 -423 -6 -80 -11
-201 -25 -577 -6 -151 -13 -303 -15 -337 -5 -76 19 -119 80 -140 22 -8 109
-39 194 -68 85 -30 161 -61 170 -69 8 -9 11 -16 5 -16 -6 0 -102 32 -215 70
-136 48 -213 79 -230 96 -20 19 -33 23 -52 19 -17 -5 -63 7 -144 35 -135 48
-354 126 -493 174 -133 47 -143 51 -162 72 -39 44 -40 74 -13 439 3 39 10 133
15 210 5 77 12 169 15 205 2 36 7 110 10 165 2 55 7 156 11 225 3 69 10 129
15 134 5 6 9 0 9 -15 1 -38 -29 -540 -40 -684 -5 -71 -14 -222 -20 -335 -6
-113 -12 -219 -14 -236 -5 -43 17 -90 51 -107 15 -8 64 -27 108 -42 44 -14 89
-31 100 -35 11 -5 74 -27 140 -50 276 -95 383 -130 399 -130 26 0 33 34 40
200 4 85 9 169 11 185 2 17 6 104 9 195 4 91 9 179 11 195 2 17 7 129 10 250
3 121 8 249 10 285 5 80 12 210 21 397 7 151 1 188 -36 211 -43 27 -700 312
-718 312 -12 0 -24 -6 -29 -12 -4 -7 -12 -69 -18 -138 -8 -101 -8 -136 4 -184
11 -47 12 -71 3 -119 -6 -33 -17 -65 -23 -71 -9 -8 -10 -7 -6 6 3 10 2 20 -4
24 -7 4 -7 10 0 18 15 18 6 163 -12 214 -13 33 -13 42 -3 42 10 0 15 27 20 98
4 57 13 106 22 120 18 27 56 29 110 5z m5031 -1119 c-10 -10 26 -42 41 -36 9
3 13 1 9 -4 -8 -13 9 -39 25 -39 8 0 12 -9 10 -22 -2 -12 1 -24 6 -27 4 -2 7
9 6 27 -1 18 -2 32 -3 32 -2 0 -4 9 -6 21 -4 18 0 20 20 16 15 -3 25 -11 25
-22 0 -10 7 -24 16 -31 15 -12 16 -11 10 9 -5 14 -3 22 4 22 6 0 8 5 5 10 -3
6 1 10 9 10 8 0 16 -10 18 -22 2 -17 11 -24 31 -26 15 -2 27 -9 27 -18 0 -13
13 -19 34 -15 5 1 4 -5 -4 -13 -15 -19 0 -21 19 -3 11 10 14 10 18 0 3 -7 14
-13 24 -13 28 0 154 -133 143 -151 -3 -5 0 -9 5 -9 6 0 11 -6 11 -13 0 -8 18
-33 40 -58 22 -24 59 -67 82 -95 44 -52 107 -104 127 -104 18 0 48 -35 45 -53
-2 -14 29 -34 47 -30 3 1 6 -5 6 -13 0 -8 -5 -14 -11 -14 -6 0 3 -12 20 -27
16 -16 31 -32 32 -38 4 -18 32 -45 47 -45 9 0 13 -5 10 -11 -4 -6 -13 -8 -21
-5 -8 3 -14 1 -14 -4 0 -6 4 -10 9 -10 5 0 22 -5 38 -11 l28 -11 -25 -14 c-14
-9 -17 -13 -7 -10 11 3 20 0 24 -9 4 -13 8 -13 22 -3 14 12 14 11 3 -4 -11
-14 -19 -15 -40 -7 l-27 10 25 -26 c36 -39 36 -69 0 -45 -12 8 -12 10 5 10 17
0 17 2 5 13 -8 7 -28 19 -44 26 -26 11 -28 10 -16 -3 7 -9 9 -16 5 -16 -5 0 0
-10 11 -22 12 -14 14 -18 4 -13 -8 4 -12 5 -8 0 4 -4 18 -13 30 -19 14 -7 24
-21 24 -36 1 -21 0 -22 -11 -7 -7 9 -17 17 -24 17 -17 0 10 -39 31 -46 10 -3
18 -15 18 -26 0 -14 -5 -18 -15 -14 -12 4 -14 0 -9 -22 4 -15 12 -30 18 -34 8
-6 7 -11 -3 -17 -8 -5 -9 -11 -3 -15 6 -3 9 -14 8 -24 -2 -9 10 -32 26 -51 34
-38 32 -46 -8 -31 l-29 10 28 -23 c30 -25 36 -40 12 -31 -10 4 -15 0 -15 -11
0 -9 5 -13 10 -10 6 3 10 1 10 -5 0 -6 6 -8 13 -4 7 4 9 3 4 -2 -5 -5 -14 -9
-19 -9 -6 0 -13 -6 -15 -12 -3 -7 0 -13 6 -13 6 0 11 -9 11 -20 0 -13 12 -28
30 -38 16 -9 30 -20 30 -24 0 -13 -28 -9 -33 5 -4 8 -6 8 -6 0 -1 -6 10 -24
23 -40 12 -15 21 -33 19 -39 -2 -6 6 -14 19 -17 22 -6 22 -7 4 -20 -10 -7 -33
-12 -52 -11 -36 3 -43 -6 -20 -25 21 -18 16 -52 -6 -45 -10 3 -18 1 -18 -5 0
-6 7 -11 15 -11 8 0 15 -5 15 -10 0 -6 3 -9 8 -9 19 3 23 -2 12 -16 -7 -9 -8
-15 -2 -15 5 0 17 -11 26 -25 14 -21 14 -24 1 -19 -8 4 -15 10 -15 15 0 5 -8
9 -17 9 -11 0 -6 -8 18 -26 28 -22 30 -25 10 -19 -26 8 -71 45 -55 45 5 0 1 5
-8 11 -25 14 -23 32 2 19 11 -6 20 -7 20 -1 0 10 -30 25 -44 22 -13 -3 -66 50
-66 66 0 17 12 16 36 -2 10 -8 22 -15 27 -15 14 0 7 27 -12 44 -16 15 -23 16
-43 5 -13 -6 -20 -8 -16 -4 4 4 0 14 -10 22 -15 13 -15 13 6 3 15 -7 22 -7 22
0 0 5 -6 10 -12 11 -7 0 -4 4 7 9 29 13 32 12 38 -10 3 -11 13 -20 22 -20 15
0 15 1 1 16 -21 20 -20 23 5 17 20 -6 21 -3 15 23 -4 16 -7 37 -7 47 0 9 -4
17 -10 17 -5 0 -8 -6 -7 -12 2 -8 -7 -12 -24 -10 -14 2 -29 -2 -33 -7 -3 -7 2
-11 14 -11 11 0 23 -5 27 -11 5 -9 -1 -10 -22 -5 -20 5 -25 4 -14 -3 8 -6 12
-13 8 -16 -8 -9 -109 26 -103 35 3 4 -3 11 -12 14 -10 4 -14 4 -10 0 4 -4 1
-14 -5 -22 -10 -11 -9 -16 5 -23 21 -12 23 -31 2 -23 -11 5 -14 0 -13 -20 1
-14 6 -26 11 -26 5 0 6 7 3 16 -5 13 -1 14 27 9 37 -8 64 -29 64 -50 0 -8 -4
-12 -9 -9 -5 3 -6 9 -3 14 3 5 -3 14 -14 19 -25 14 -42 14 -18 0 24 -14 22
-32 -3 -19 -12 7 -20 7 -20 1 0 -5 8 -12 18 -16 9 -3 26 -18 36 -33 11 -15 13
-21 6 -14 -8 6 -20 12 -28 12 -12 0 -12 -3 -2 -15 7 -8 17 -15 22 -15 5 0 23
-13 41 -30 18 -16 27 -30 21 -30 -7 0 -14 -7 -18 -15 -4 -12 -2 -13 12 -7 18
10 39 6 60 -11 21 -17 54 -20 47 -5 -4 7 1 4 9 -6 19 -23 14 -32 -11 -21 -33
14 -55 16 -47 3 4 -7 3 -8 -4 -4 -8 5 -9 0 -3 -15 10 -28 29 -36 37 -15 5 12
10 13 25 5 11 -5 24 -7 29 -4 6 3 9 -5 8 -19 -2 -21 -5 -23 -21 -14 -17 9 -17
7 -7 -12 17 -31 -1 -47 -35 -32 l-26 12 25 27 c14 15 23 29 20 33 -3 3 -11 -2
-17 -11 -24 -31 -77 -34 -77 -3 0 18 -35 35 -56 27 -11 -4 -15 -3 -11 4 5 7 0
9 -13 6 -27 -7 -25 -16 5 -30 19 -8 24 -8 19 0 -3 7 3 1 14 -13 11 -13 19 -27
17 -30 -2 -3 9 -5 24 -6 34 -1 91 -42 91 -64 0 -9 6 -22 13 -29 10 -10 9 -11
-5 -6 -10 4 -18 11 -18 16 0 5 -9 9 -20 9 -11 0 -20 6 -20 13 0 24 -18 39 -49
43 -29 3 -30 3 -13 -16 9 -11 24 -20 34 -20 10 0 18 -2 18 -4 0 -2 3 -13 7
-23 6 -16 5 -16 -10 -5 -9 8 -22 10 -28 6 -7 -4 -9 -3 -6 3 4 6 0 14 -9 17 -8
3 -12 2 -9 -3 3 -6 -7 -8 -22 -7 -16 2 -34 -1 -42 -8 -12 -9 -13 -8 -7 3 5 8
4 16 -4 21 -9 6 -6 10 9 15 13 4 28 1 37 -6 13 -10 13 -8 4 15 -5 15 -8 32 -5
36 3 5 -4 14 -16 20 -17 9 -20 9 -14 0 5 -9 1 -10 -15 -5 -15 5 -20 4 -16 -4
9 -14 0 -14 -27 0 -21 11 -21 11 -5 -7 11 -12 14 -25 9 -33 -6 -9 -11 -10 -15
-2 -4 6 -15 11 -24 11 -9 0 -26 12 -39 28 -12 15 -22 21 -23 15 0 -7 4 -13 8
-13 5 0 14 -12 21 -27 l12 -28 -26 29 c-14 17 -24 35 -21 42 3 7 -8 19 -25 26
-31 14 -41 31 -11 22 11 -4 8 1 -8 15 -14 11 -30 21 -37 21 -6 0 -19 7 -28 16
-15 15 -15 14 -9 -12 7 -26 6 -28 -9 -15 -9 7 -14 17 -11 22 3 5 0 17 -6 26
-8 14 -10 14 -9 3 3 -35 -2 -60 -12 -60 -6 0 -9 6 -6 13 3 7 -5 19 -16 27 -20
12 -21 12 -8 -3 7 -10 11 -17 8 -17 -3 0 -12 -3 -20 -6 -12 -4 -14 0 -10 14 2
11 -3 32 -12 46 -15 23 -15 26 -2 32 13 5 14 10 5 30 -6 13 -8 27 -5 30 6 7
13 4 57 -21 30 -17 42 -9 16 11 -17 12 -18 14 -3 14 15 0 15 3 5 23 -7 12 -19
30 -27 40 -8 9 -11 17 -7 17 4 0 1 7 -8 15 -8 9 -12 23 -9 32 5 12 3 14 -8 8
-8 -4 -11 -4 -6 0 4 5 -1 17 -10 27 -11 12 -13 22 -7 28 7 7 17 4 29 -10 18
-20 18 -21 -1 -14 -19 7 -18 7 1 -17 11 -13 28 -31 38 -40 9 -9 17 -21 17 -27
0 -11 60 -45 67 -38 2 2 -12 15 -32 30 -32 25 -52 68 -23 50 7 -5 3 5 -10 21
-26 32 -21 47 7 21 10 -9 31 -19 47 -22 16 -2 34 -6 41 -9 6 -2 10 3 9 12 -3
18 -32 37 -45 28 -5 -3 -12 4 -16 15 -3 11 -17 23 -30 26 -13 3 -31 15 -41 25
-17 19 -17 20 2 13 10 -4 31 -16 46 -26 16 -11 29 -15 33 -8 3 5 -6 15 -20 22
-22 10 -23 13 -10 20 8 5 21 6 28 1 6 -4 24 -6 39 -4 32 3 44 -14 26 -36 -11
-14 -11 -15 2 -8 8 6 18 10 22 10 19 0 16 14 -7 29 -15 10 -24 23 -21 31 5 13
-46 65 -64 65 -5 0 -10 5 -10 10 0 13 17 13 25 1 3 -6 15 -8 26 -6 21 4 64
-17 54 -27 -3 -2 2 -5 10 -5 8 0 15 4 15 9 0 4 -4 8 -10 8 -5 0 -10 5 -10 11
0 5 4 8 9 5 5 -3 11 0 14 7 5 14 -31 42 -41 32 -4 -3 0 -10 7 -14 7 -5 10 -14
7 -20 -5 -8 -14 -6 -31 6 -15 12 -19 20 -11 25 8 6 8 8 -1 8 -6 0 -15 -5 -18
-11 -5 -7 -14 -4 -26 7 -15 13 -16 19 -7 25 7 4 18 3 25 -3 20 -16 15 0 -6 23
-12 13 -21 17 -26 10 -3 -6 -11 -9 -16 -5 -5 3 -7 10 -4 15 4 5 0 9 -8 9 -8 0
-31 11 -52 25 -20 15 -40 24 -43 20 -3 -3 1 -5 8 -5 7 0 10 -3 7 -6 -4 -4 -13
-1 -22 6 -8 7 -21 10 -29 7 -8 -3 -20 1 -26 8 -10 12 -9 16 3 21 22 8 -1 33
-25 26 -19 -5 -48 13 -48 30 0 5 10 3 23 -3 20 -11 21 -11 8 4 -10 13 -10 17
-1 17 9 0 9 4 -1 18 -12 15 -12 16 2 4 9 -7 27 -11 40 -10 13 2 24 -2 24 -9 0
-7 10 -19 21 -28 20 -13 23 -13 28 1 3 9 -1 17 -12 21 -9 3 -27 15 -39 26 -17
15 -23 17 -23 6 -1 -10 -5 -9 -15 5 -8 10 -12 23 -8 29 3 6 2 7 -4 4 -5 -3
-22 7 -37 24 -15 16 -39 32 -52 35 -13 3 -24 10 -24 15 0 5 -6 9 -12 9 -7 0 4
-15 25 -33 20 -19 37 -38 37 -44 0 -6 7 -16 15 -23 21 -17 12 -24 -14 -10 -12
6 -21 17 -21 25 0 8 -5 15 -11 15 -5 0 -7 5 -4 10 3 6 -1 10 -9 10 -8 0 -21 8
-28 19 -7 10 -23 21 -35 25 -13 4 -23 14 -23 22 0 8 -4 14 -10 14 -5 0 -10 7
-10 15 0 9 -11 27 -25 40 -13 14 -20 25 -14 25 6 0 7 5 4 10 -7 12 5 13 23 2
7 -5 10 -16 7 -24 -4 -9 0 -18 10 -22 9 -3 13 -11 9 -17 -4 -8 -3 -9 4 -5 6 4
8 14 5 24 -4 13 0 11 16 -5 12 -13 27 -23 34 -23 7 0 4 5 -5 11 -10 5 -18 18
-18 28 0 21 -17 37 -44 42 -11 2 -21 10 -24 17 -3 11 0 12 19 2 21 -11 21 -9
-6 20 -16 17 -47 41 -68 52 -22 10 -36 22 -33 26 4 3 12 0 18 -6 7 -7 20 -12
30 -12 10 0 27 -9 38 -20 11 -11 20 -16 20 -11 0 6 -5 13 -10 16 -6 4 -8 10
-5 15 3 5 -2 13 -11 18 -11 6 -13 12 -6 16 7 4 2 16 -13 32 -14 15 -22 30 -19
35 3 5 -5 9 -16 9 -13 0 -24 8 -27 20 -3 11 -10 20 -15 20 -5 0 -6 5 -3 10 3
6 4 10 1 10 -2 0 -12 3 -22 7 -13 5 -16 3 -11 -9 8 -21 -3 -30 -20 -17 -7 6
-13 9 -13 5 0 -3 13 -14 29 -24 23 -14 27 -21 20 -32 -8 -12 -12 -12 -16 -2
-3 7 -17 24 -32 38 -22 21 -24 26 -11 34 12 8 12 10 -5 10 -15 0 -17 3 -7 9
11 6 9 9 -6 13 -12 3 -23 18 -26 34 -8 32 -43 80 -53 71 -3 -4 0 -13 7 -22 17
-20 0 -19 -29 2 -23 15 -23 17 -6 23 15 5 9 10 -26 25 -24 9 -39 20 -32 22 7
2 21 0 32 -6 26 -15 38 -14 23 1 -17 17 -15 29 3 22 8 -4 15 -10 15 -16 0 -14
26 -38 34 -31 3 3 14 0 23 -8 10 -7 8 -2 -4 12 -13 14 -23 33 -23 42 0 20 -17
31 -23 15 -2 -7 -4 2 -5 20 -1 31 -24 67 -36 55 -7 -8 -28 46 -21 57 3 5 1 11
-5 15 -5 3 -10 1 -10 -4 0 -6 -7 -11 -15 -11 -8 0 -15 5 -15 10 0 6 5 10 11
10 5 0 7 5 4 10 -3 6 3 10 14 10 11 0 24 8 30 18 5 9 13 16 18 14 4 -2 9 1 11
7 2 5 -6 8 -17 6 -12 -2 -21 1 -21 9 0 8 10 11 30 8 18 -2 27 -9 23 -15 -4 -7
0 -8 11 -4 13 5 17 3 13 -7 -4 -10 0 -12 14 -9 10 3 19 10 20 17 0 6 4 0 10
-12 5 -13 7 -27 5 -30 -2 -4 6 -8 18 -8 27 -2 31 25 7 43 -9 6 -13 15 -8 19 4
4 7 2 7 -4 0 -6 7 -9 15 -6 8 4 15 10 15 15 0 5 -7 9 -15 9 -8 0 -15 9 -15 20
0 11 5 20 12 20 6 0 9 -3 5 -6z m-1904 -69 c15 -8 25 -10 22 -5 -4 6 1 10 10
10 9 0 13 -4 10 -10 -3 -5 2 -10 12 -11 10 0 13 -3 6 -5 -7 -3 -9 -12 -6 -20
3 -9 -1 -14 -12 -14 -29 0 -7 -17 24 -18 38 -1 92 -32 88 -51 -1 -7 4 -16 11
-18 7 -3 10 1 6 11 -3 9 -2 16 3 16 16 0 33 -23 33 -45 0 -15 10 -25 35 -34
19 -7 35 -19 35 -27 0 -8 5 -14 10 -14 6 0 10 9 10 20 0 22 -38 62 -52 54 -15
-9 -9 3 9 17 9 8 14 9 10 3 -4 -7 0 -15 9 -18 11 -4 14 -1 12 11 -2 10 -22 25
-48 34 -24 9 -46 21 -48 28 -2 6 -10 11 -18 11 -8 0 -11 -6 -8 -15 5 -11 2
-13 -10 -9 -9 3 -13 10 -10 15 3 5 -2 9 -10 9 -10 0 -13 6 -9 16 4 11 12 14
27 9 11 -4 33 -6 49 -6 15 1 27 -3 27 -9 0 -5 -7 -7 -15 -4 -8 4 -15 2 -15 -4
0 -5 8 -12 18 -15 9 -2 26 -8 36 -13 14 -5 17 -4 11 5 -6 10 -3 11 12 2 11 -6
23 -8 26 -5 3 4 22 -4 42 -16 20 -12 34 -25 30 -28 -3 -3 -19 4 -35 16 -35 26
-48 28 -29 6 7 -9 12 -29 11 -44 -2 -14 4 -32 12 -39 12 -10 14 -9 9 10 -4 16
-2 20 8 17 8 -3 14 -11 14 -19 0 -8 10 -15 22 -17 14 -2 20 -8 16 -18 -3 -7 1
-16 9 -19 16 -6 13 -61 -4 -82 -13 -17 2 -22 46 -14 42 7 47 16 20 35 -9 7
-13 16 -8 19 5 3 35 -12 66 -34 63 -43 69 -45 66 -26 -2 6 3 11 10 9 17 -3 15
15 -3 22 -9 3 -15 18 -15 36 0 22 -9 40 -32 61 -18 16 -36 29 -40 29 -4 0 -6
13 -5 29 l2 28 25 -19 c14 -11 40 -26 58 -33 35 -15 41 -29 16 -39 -8 -3 -13
-2 -10 3 9 15 -18 31 -34 21 -12 -8 -12 -10 3 -10 10 0 16 -4 12 -9 -3 -5 9
-20 27 -33 52 -36 84 -71 70 -76 -9 -3 -8 -8 3 -19 19 -18 19 -29 0 -37 -10
-3 -15 1 -15 11 0 23 -23 83 -31 83 -18 0 -20 -23 -4 -40 11 -12 13 -20 6 -25
-14 -8 -14 -45 0 -45 5 0 8 -4 4 -10 -8 -14 -33 -1 -40 21 -4 10 -11 19 -16
19 -6 0 -7 -4 -4 -10 3 -5 1 -10 -4 -10 -6 0 -11 -6 -11 -13 0 -19 -70 -9 -78
12 -6 17 -22 31 -35 31 -5 0 1 -12 12 -26 11 -15 18 -31 14 -37 -4 -6 0 -8 10
-4 10 3 17 2 17 -3 0 -5 6 -7 14 -4 8 3 17 1 20 -5 4 -6 -9 -13 -35 -17 -37
-6 -96 -44 -121 -79 -5 -6 -11 -5 -16 3 -5 7 -17 10 -28 6 -15 -5 -16 -4 -4 5
22 16 6 23 -23 10 -21 -9 -30 -9 -42 1 -12 10 -15 10 -15 -3 0 -9 -4 -19 -10
-22 -5 -3 -7 0 -4 8 3 8 -3 20 -13 27 -14 11 -15 11 -6 1 14 -16 6 -41 -13
-41 -8 0 -11 -6 -7 -17 5 -12 3 -14 -8 -8 -8 5 -5 -2 5 -14 21 -24 57 -25 64
-2 3 8 0 11 -7 7 -6 -4 -11 -3 -11 3 0 15 14 21 28 12 13 -8 6 -41 -8 -41 -5
0 -16 -7 -24 -16 -9 -8 -16 -11 -16 -5 0 6 -8 7 -17 4 -12 -5 -15 -2 -10 10 8
21 0 22 -19 3 -7 -8 -22 -12 -33 -9 -13 3 -21 -2 -26 -16 -3 -12 -13 -21 -21
-21 -14 0 -16 -5 -18 -50 -1 -16 -8 -26 -21 -28 -20 -3 -20 -3 -1 13 15 11 16
15 5 15 -26 0 -69 -24 -65 -36 3 -8 -3 -10 -17 -6 -13 3 -18 1 -14 -4 5 -5 12
-9 15 -9 4 0 13 -4 21 -9 10 -6 12 -5 7 2 -4 7 -5 12 -2 12 2 0 13 3 23 6 15
5 15 4 3 -5 -13 -9 -13 -11 2 -11 9 0 29 -5 43 -12 21 -9 25 -17 20 -35 -4
-16 -1 -23 10 -23 8 0 15 5 15 10 0 6 9 10 21 10 11 0 17 -4 14 -10 -9 -14 22
-12 68 4 20 8 37 10 37 5 0 -5 5 -8 12 -6 6 1 13 -5 15 -13 2 -10 -5 -16 -19
-17 -13 -1 -40 -4 -61 -7 -21 -3 -35 -2 -33 3 3 4 -14 7 -37 6 -38 -2 -45 1
-60 27 -14 25 -22 28 -48 24 -27 -4 -61 3 -109 22 -47 18 -55 5 -25 -41 10
-14 14 -15 18 -4 3 8 1 19 -5 25 -6 6 -1 8 16 5 23 -5 25 -8 14 -21 -11 -13
-10 -15 3 -10 9 3 22 2 29 -2 7 -5 21 -3 31 3 14 9 21 9 31 -1 8 -8 15 -9 25
-1 8 7 13 8 13 1 0 -5 -6 -15 -14 -21 -11 -9 -15 -9 -18 1 -3 9 -11 9 -35 -1
-18 -7 -46 -10 -65 -7 l-33 6 30 -15 c18 -9 22 -13 8 -9 -12 2 -24 0 -28 -6
-9 -14 -25 -3 -25 18 0 21 -56 53 -102 58 l-33 4 25 -17 c31 -21 40 -34 33
-47 -3 -5 -1 -6 5 -2 6 4 10 12 8 19 -1 7 -1 9 1 5 3 -5 15 -8 28 -8 14 0 25
-7 28 -20 6 -24 -6 -26 -27 -5 -19 19 -30 19 -23 1 3 -8 1 -16 -6 -19 -6 -2
-3 -6 7 -10 10 -4 15 -3 11 3 -3 6 1 10 10 10 9 0 14 -4 11 -8 -8 -14 97 -1
114 13 18 15 52 16 47 1 -2 -6 -11 -10 -21 -8 -9 2 -16 -4 -16 -12 0 -19 23
-33 28 -18 2 7 10 12 18 12 9 0 13 4 10 8 -3 5 8 9 24 10 16 0 32 -3 35 -9 4
-5 -2 -6 -11 -2 -11 4 -15 2 -11 -4 7 -11 -40 -40 -50 -30 -3 4 -12 2 -18 -3
-9 -7 -16 -6 -25 5 -14 17 -40 20 -40 6 0 -6 -10 -9 -22 -9 -53 3 -78 -2 -78
-17 0 -8 2 -15 4 -15 2 0 12 -3 22 -7 11 -4 15 -3 10 5 -4 7 1 10 13 9 11 0
19 -6 18 -11 -1 -6 9 -12 23 -14 86 -10 97 -32 16 -32 -30 0 -58 -4 -61 -10
-4 -6 10 -10 34 -10 30 0 41 -4 41 -15 0 -8 7 -15 15 -15 8 0 14 6 12 13 -1 6
4 11 11 9 7 -1 40 -5 72 -9 33 -3 57 -9 55 -14 -3 -4 -19 -6 -35 -4 -21 3 -30
0 -30 -10 0 -18 -5 -19 -30 -3 -24 16 -39 2 -16 -15 16 -12 16 -13 -3 -14 -11
-1 -20 1 -20 5 3 21 -3 23 -23 6 -13 -10 -17 -12 -10 -4 6 8 12 17 12 21 0 11
-33 5 -52 -10 -9 -8 -27 -16 -39 -18 -12 -2 -28 -11 -35 -21 -13 -16 -13 -16
-14 1 0 18 -25 24 -35 7 -3 -5 -12 -7 -21 -3 -16 6 -16 -17 1 -29 14 -11 27
-10 20 1 -11 19 14 21 27 2 8 -11 31 -23 52 -27 37 -6 38 -7 17 -18 -12 -7
-18 -15 -15 -19 4 -4 0 -7 -10 -7 -9 0 -14 -4 -11 -10 3 -5 1 -10 -4 -10 -6 0
-11 -5 -11 -11 0 -5 5 -7 10 -4 6 3 10 1 10 -4 0 -6 -17 -11 -37 -11 -21 0
-45 -5 -53 -10 -13 -8 -12 -11 5 -25 19 -15 19 -15 -10 -9 -16 4 -34 9 -40 13
-5 3 -23 4 -39 2 -18 -2 -26 1 -22 8 4 6 0 11 -8 11 -9 0 -16 -5 -16 -10 0 -7
-8 -6 -22 2 -35 19 -79 22 -72 5 4 -11 -1 -13 -20 -10 -14 3 -28 14 -31 24 -4
10 -11 19 -16 19 -6 0 -7 5 -4 10 4 6 12 4 21 -5 17 -17 30 -19 38 -6 3 5 -4
11 -16 14 -31 9 -19 16 14 10 15 -3 26 -9 23 -13 -3 -5 3 -11 12 -14 22 -6
102 -1 110 8 11 11 33 6 30 -6 -4 -20 43 -21 79 -2 34 18 48 39 19 28 -8 -4
-15 -1 -15 6 0 8 9 11 25 7 16 -3 24 0 22 7 -2 6 -14 13 -27 14 -32 5 -70 31
-70 48 0 18 -15 18 -34 -1 -8 -9 -22 -12 -32 -8 -12 4 -15 3 -10 -5 4 -7 16
-12 26 -12 25 0 34 -16 14 -24 -25 -9 -54 -7 -54 5 0 5 -4 7 -10 4 -15 -10
-12 3 7 25 10 11 25 20 34 20 9 0 20 7 23 16 5 13 1 15 -18 10 -13 -3 -35 -2
-48 3 -13 6 -18 10 -12 10 15 1 5 51 -15 76 -16 19 -16 19 11 2 31 -19 42 -22
33 -7 -11 19 66 16 120 -4 42 -15 51 -14 40 3 -3 6 -18 12 -33 12 -27 1 -27 1
3 8 29 7 29 7 -15 16 -25 5 -49 10 -55 11 -5 1 -18 2 -28 3 -10 0 -17 6 -15
12 2 6 7 10 11 9 5 -1 19 6 33 14 13 9 24 12 24 6 0 -17 53 -38 75 -30 18 7
16 10 -15 21 -19 7 -39 12 -44 11 -5 -2 -6 4 -2 13 3 9 2 14 -3 10 -5 -3 -12
1 -14 7 -3 8 -6 6 -6 -4 -1 -20 -3 -21 -25 -12 -9 3 -13 10 -10 15 3 5 0 9 -5
9 -6 0 -11 5 -11 11 0 5 5 7 10 4 6 -3 10 -2 10 4 0 5 6 11 13 14 6 2 -1 2
-18 -1 -32 -5 -53 -25 -32 -30 7 -1 18 -11 24 -22 11 -17 9 -18 -24 -15 -37 3
-72 25 -40 25 21 0 22 26 1 34 -8 3 -12 10 -9 16 4 6 -1 7 -11 3 -11 -4 -13
-8 -6 -11 7 -2 12 -8 12 -13 0 -10 -40 -12 -64 -3 -18 7 -22 39 -5 49 6 4 -1
16 -18 30 -33 29 -28 37 12 19 17 -7 24 -13 16 -14 -32 -1 13 -30 46 -30 30 0
34 2 23 15 -7 8 -16 15 -20 15 -4 0 -24 16 -45 35 -20 20 -40 33 -43 31 -3 -3
-11 3 -19 13 -8 12 -20 17 -33 14 -14 -4 -20 0 -20 11 0 9 -4 16 -9 16 -5 0
-11 18 -15 40 -3 22 -11 40 -16 40 -5 0 -7 -7 -4 -15 4 -10 0 -15 -11 -15 -13
0 -16 6 -12 21 3 13 0 22 -10 26 -21 8 6 24 29 17 12 -4 15 0 11 16 -5 18 -3
19 21 10 14 -5 26 -6 26 -1 0 5 16 8 35 6 19 -2 37 1 41 6 4 6 11 6 20 -2 17
-14 19 2 2 19 -9 9 -8 12 4 12 9 0 20 -4 23 -10 3 -5 14 -10 23 -10 15 1 15 2
-2 15 -11 8 -17 15 -14 15 4 0 14 3 24 7 12 4 15 3 10 -5 -5 -8 1 -12 16 -12
13 0 31 -9 41 -20 18 -21 42 -26 51 -11 3 5 -5 12 -19 15 -14 4 -25 13 -25 21
0 8 -9 15 -19 15 -11 0 -22 4 -25 8 -7 11 -75 5 -91 -8 -7 -6 -16 -7 -19 -2
-3 5 -19 7 -36 4 -24 -3 -29 -1 -24 11 3 8 1 18 -5 22 -6 3 -11 0 -11 -8 0
-16 -27 -30 -41 -21 -5 3 -9 -2 -9 -10 0 -19 -2 -20 -45 -2 -25 11 -35 11 -38
3 -3 -8 -10 -6 -23 6 -18 16 -18 17 1 18 11 1 28 2 38 2 27 0 21 34 -8 39 -17
4 -25 1 -25 -8 0 -8 -7 -14 -15 -14 -8 0 -15 4 -15 10 0 5 -10 14 -22 21 -18
9 -20 9 -15 -4 3 -9 -1 -18 -9 -21 -8 -3 -14 -2 -14 3 0 4 -11 6 -24 4 -13 -3
-27 0 -31 6 -3 6 -3 11 2 10 4 -1 11 0 16 1 11 4 26 7 37 9 5 0 7 7 4 15 -3 7
2 16 11 20 10 3 15 12 11 21 -7 18 15 20 32 3 10 -10 15 -10 22 2 11 17 8 21
-17 24 -10 2 -19 10 -21 19 -4 19 13 23 23 6 5 -7 13 -4 26 7 10 9 16 20 14
25 -3 4 1 11 9 16 8 4 16 19 18 33 2 18 11 26 35 31 40 8 86 37 78 49 -3 5 -1
11 5 15 5 3 10 1 10 -4 0 -17 30 -13 36 4 4 8 13 15 21 15 8 0 11 5 8 10 -3 6
-2 10 4 10 18 0 21 -18 5 -24 -9 -4 -15 -9 -12 -12 3 -2 18 0 33 6 24 9 26 12
14 27 -12 14 -12 16 0 8 11 -6 13 -4 8 8 -3 10 -2 17 4 17 6 0 7 5 4 10 -4 6
11 10 37 10 28 0 38 -3 29 -9 -10 -7 -10 -10 -1 -16 14 -9 30 11 30 38 0 22
12 22 57 -3 33 -17 39 -18 54 -4 9 8 39 17 68 21 28 3 51 10 51 14 0 14 32 11
63 -6z m-3006 -86 c26 -11 86 -34 133 -51 47 -17 104 -39 127 -49 23 -10 46
-19 51 -19 5 0 35 -11 66 -25 67 -30 71 -47 25 -105 -23 -29 -39 -39 -57 -37
-29 2 -39 21 -22 42 16 20 -3 45 -35 45 -12 0 -25 3 -29 7 -3 4 -14 8 -24 9
-9 2 -18 8 -20 13 -2 6 -15 -1 -30 -14 -15 -14 -34 -25 -43 -25 -21 0 -33 28
-20 44 12 15 -3 41 -18 32 -6 -4 -11 -3 -11 2 0 4 -25 16 -56 26 -47 15 -58
16 -65 4 -5 -7 -9 -16 -9 -20 0 -18 -50 -6 -64 14 -15 21 -15 23 4 30 20 7 28
28 11 28 -11 0 -24 48 -16 60 10 16 50 11 102 -11z m834 -323 c31 -14 90 -36
211 -80 53 -19 66 -41 41 -68 -12 -14 -24 -17 -45 -13 -20 5 -35 1 -54 -14
-15 -12 -35 -21 -44 -21 -18 0 -33 23 -22 34 10 11 11 36 1 36 -6 0 -30 9 -54
20 -45 21 -69 19 -79 -6 -13 -34 -98 10 -89 47 6 22 23 25 41 7 9 -9 12 -7 12
10 0 14 -5 20 -14 16 -17 -6 -40 31 -30 47 8 14 79 5 125 -15z m-996 -525
c253 -84 469 -157 480 -162 26 -11 325 -112 440 -149 50 -16 108 -29 131 -28
23 0 51 -5 63 -12 33 -17 65 -51 55 -59 -5 -3 -10 -24 -11 -46 -2 -22 -8 -52
-14 -66 -9 -24 -14 -26 -42 -19 -40 9 -255 78 -282 90 -11 5 -49 18 -85 29
-36 12 -139 46 -230 77 -91 30 -205 68 -255 84 -49 15 -254 83 -454 149 -201
67 -370 121 -377 121 -25 0 -25 -79 0 -81 6 -1 18 -1 28 0 9 1 65 -14 125 -33
59 -19 162 -51 228 -71 66 -20 131 -40 145 -45 14 -5 72 -23 130 -41 58 -18
110 -34 115 -36 44 -13 182 -59 235 -78 58 -20 307 -101 480 -155 36 -11 72
-23 80 -27 8 -3 17 -7 20 -8 74 -19 150 -63 130 -75 -20 -13 -30 -81 -35 -255
-2 -93 -7 -194 -11 -224 -4 -30 -7 -149 -8 -265 -1 -116 -4 -216 -8 -221 -4
-6 -5 -23 -4 -37 2 -19 -1 -25 -10 -21 -8 3 -14 0 -14 -7 0 -7 -7 -10 -16 -6
-8 3 -12 2 -9 -4 3 -6 -3 -11 -14 -11 -12 -1 -27 -2 -33 -3 -7 -1 -19 -7 -26
-13 -7 -7 -18 -13 -23 -13 -6 0 -7 6 -3 13 4 6 -3 2 -14 -10 -14 -13 -29 -19
-42 -16 -15 4 -20 1 -20 -13 0 -9 -3 -14 -7 -10 -4 3 -13 -4 -20 -16 -10 -18
-12 -20 -13 -5 0 21 -9 22 -36 3 -15 -10 -31 -12 -55 -7 -19 4 -45 4 -57 0
-12 -5 -22 -5 -22 -1 0 4 -4 1 -9 -7 -5 -8 -22 -15 -38 -16 -15 -2 -28 -4 -28
-5 0 -11 -154 -20 -160 -9 -4 5 -15 4 -28 -3 -26 -14 -27 -14 -38 4 -7 10 -9
8 -9 -7 -1 -18 -2 -18 -14 4 -13 23 -14 23 -20 5 -3 -11 -15 -20 -25 -21 -12
-1 -18 3 -15 11 3 7 -2 13 -11 13 -8 0 -15 -5 -15 -10 0 -5 -7 -4 -15 3 -12
10 -15 10 -16 -1 0 -10 -2 -11 -6 -1 -2 6 -10 9 -16 5 -22 -13 -97 -11 -97 3
0 9 -12 13 -33 12 -19 -1 -39 2 -45 6 -6 3 -13 -2 -15 -11 -3 -11 -5 -6 -6 11
-1 28 -2 29 -16 10 -13 -17 -14 -17 -15 -1 0 9 -5 17 -11 17 -5 0 -7 5 -4 10
9 14 -1 13 -35 -5 -16 -8 -37 -12 -46 -8 -12 4 -15 3 -10 -5 4 -7 1 -12 -8
-12 -9 0 -16 5 -16 10 0 6 -5 10 -11 10 -6 0 -8 -7 -5 -17 4 -10 -5 -5 -19 11
-21 25 -25 26 -25 10 0 -11 -3 -15 -8 -8 -4 6 -15 10 -25 8 -13 -2 -15 1 -8
10 7 8 1 15 -21 25 -25 12 -32 11 -39 0 -6 -10 -9 -7 -10 11 l-1 25 -8 -25
c-5 -14 -8 -18 -9 -9 -1 12 -9 15 -31 13 -16 -2 -30 1 -30 7 0 6 -4 7 -10 4
-5 -3 -10 1 -10 9 0 9 -4 16 -10 16 -5 0 -10 -5 -10 -12 0 -6 -10 -2 -21 11
-15 16 -24 20 -32 12 -18 -18 -37 -12 -38 12 -1 16 -3 17 -6 5 -3 -11 -10 -15
-20 -11 -13 5 -15 2 -10 -11 4 -10 3 -15 -3 -11 -6 4 -8 18 -6 31 4 21 2 23
-9 14 -7 -6 -24 -9 -38 -6 -21 4 -26 0 -31 -26 -3 -17 -6 -52 -6 -78 l0 -47
473 -117 c259 -65 501 -126 537 -136 36 -10 80 -22 98 -25 18 -4 31 -9 28 -12
-6 -6 -102 16 -739 171 l-139 33 -11 -24 c-6 -14 -17 -22 -26 -19 -9 3 -42 10
-73 17 -32 7 -58 16 -58 21 0 5 4 6 10 3 6 -4 7 2 1 16 -12 33 -31 36 -31 5 0
-24 -3 -26 -27 -20 -16 4 -39 11 -52 16 -13 5 -25 7 -27 6 -8 -8 -23 -173 -16
-179 7 -8 19 -11 212 -54 63 -14 142 -32 175 -40 33 -8 110 -26 170 -39 317
-72 435 -99 485 -111 83 -21 448 -104 705 -160 85 -19 110 -32 127 -65 32 -64
68 -144 68 -150 0 -9 -112 19 -128 32 -9 8 -11 7 -6 -6 3 -9 18 -19 33 -22 82
-19 101 -26 101 -40 0 -15 -6 -14 -95 8 -22 6 -77 10 -121 10 -69 0 -87 -3
-112 -22 -17 -12 -35 -20 -40 -16 -6 3 -13 2 -17 -4 -3 -5 -1 -10 4 -10 6 0 2
-14 -9 -32 -10 -17 -17 -35 -14 -40 8 -12 -33 -10 -100 6 -34 8 -108 24 -166
35 -58 12 -177 36 -265 55 -223 48 -445 94 -479 100 -46 8 -70 29 -171 151
-78 93 -104 117 -133 125 -49 13 -201 48 -232 54 -84 15 -170 39 -196 55 -17
10 -39 35 -48 56 -20 41 -19 66 20 520 8 105 17 233 18 285 3 130 15 302 26
380 5 36 10 98 10 138 0 40 5 82 10 92 7 13 7 35 -1 68 -8 41 -20 59 -61 97
-28 26 -61 51 -74 57 -13 6 -21 15 -18 19 3 5 1 9 -4 9 -14 0 -32 56 -22 66 5
5 6 22 3 37 -4 22 -8 25 -15 15 -8 -11 -2 193 7 242 2 8 6 71 10 140 6 109 5
128 -9 139 -11 9 -16 10 -16 2 0 -6 -7 -11 -15 -11 -8 0 -15 -4 -15 -10 0 -5
-6 -7 -14 -4 -9 3 -17 -3 -21 -16 -4 -12 -12 -19 -20 -16 -9 3 -18 -7 -25 -30
-6 -19 -16 -32 -21 -29 -8 6 -14 -17 -10 -39 1 -4 -6 -14 -16 -22 -17 -13 -17
-15 0 -28 14 -10 15 -15 5 -19 -11 -4 -10 -7 1 -15 10 -7 6 -9 -13 -9 -14 0
-31 5 -37 13 -6 7 -25 18 -42 23 l-32 11 7 112 c11 175 15 218 21 225 11 10
142 -43 143 -58 1 -8 2 -21 3 -29 1 -12 5 -11 16 4 14 19 16 19 72 -3 37 -14
59 -18 61 -11 5 13 113 87 153 104 28 12 47 7 242 -59 117 -39 419 -140 672
-224z m3491 215 c36 7 37 6 22 -9 -10 -10 -23 -14 -34 -10 -12 4 -15 3 -10 -6
4 -7 3 -10 -5 -9 -6 2 -14 -3 -16 -9 -3 -7 4 -14 14 -14 41 -3 57 4 63 26 4
13 15 20 31 20 21 1 25 -3 21 -18 -3 -11 -13 -22 -24 -24 -10 -3 -18 -10 -18
-15 0 -6 -7 -7 -16 -4 -12 5 -15 2 -10 -10 5 -14 4 -15 -8 -5 -11 9 -15 8 -21
-6 -6 -16 -8 -16 -18 -2 -13 17 -52 35 -42 19 6 -9 -8 -14 -29 -11 -4 1 -14
-3 -21 -9 -9 -8 -14 -6 -19 5 -3 8 -14 15 -24 15 -10 0 -27 7 -38 15 -10 8
-27 15 -36 15 -29 0 -21 20 8 20 14 0 23 4 19 10 -10 16 18 12 43 -6 14 -9 21
-22 18 -31 -3 -8 -1 -11 4 -8 6 3 10 1 10 -4 0 -6 5 -11 11 -11 6 0 9 6 6 13
-3 9 3 13 17 13 12 -1 20 4 19 12 -2 6 2 12 9 12 6 0 8 3 5 7 -4 3 -2 12 5 20
8 10 13 11 18 3 5 -8 21 -9 46 -4z m-4870 -445 c5 1 22 1 38 0 22 -1 27 -5 22
-18 -5 -11 1 -24 16 -36 13 -10 18 -16 13 -14 -6 3 -17 2 -25 -4 -13 -7 -13
-9 0 -9 13 0 16 -12 16 -55 0 -30 -4 -55 -8 -55 -10 0 -5 -66 5 -77 13 -12 7
-22 -10 -16 -9 4 -14 2 -10 -4 7 -12 -27 -43 -48 -43 -9 0 -28 -8 -42 -17
l-26 -17 7 94 c4 52 9 104 10 115 1 11 6 55 10 99 5 43 12 73 16 67 4 -7 11
-11 16 -10z m304 -369 c-4 -1 -5 -15 -3 -30 3 -20 2 -23 -5 -13 -8 11 -11 5
-14 -25 -3 -40 24 -94 47 -94 11 0 41 -60 61 -123 7 -23 10 -73 7 -135 -6
-125 -10 -177 -12 -177 -5 0 -11 -67 -16 -190 -3 -71 -8 -161 -11 -200 -3 -38
-8 -110 -10 -160 -4 -101 -23 -177 -46 -181 -8 -1 -37 18 -64 43 -27 25 -44
42 -38 39 7 -3 11 10 13 37 1 23 4 56 6 72 4 31 8 265 4 281 -6 22 14 194 22
194 9 0 7 32 -6 101 -4 23 -3 39 4 43 15 10 14 53 -2 63 -9 6 -11 36 -6 128 9
154 28 345 35 357 3 5 14 1 24 -9 9 -10 14 -19 10 -21z m8145 -133 c9 -9 16
-47 19 -119 3 -58 9 -153 15 -212 12 -125 2 -175 -29 -158 -10 6 -28 10 -39
10 -12 0 -21 6 -22 13 0 6 -2 30 -4 52 -5 76 -5 376 0 386 4 5 11 7 16 4 5 -4
9 -1 9 4 0 6 -4 11 -8 11 -5 0 -9 6 -9 13 0 17 34 15 52 -4z m-8428 -4 c0 -8
-4 -12 -8 -10 -4 3 -9 -2 -12 -10 -4 -9 -1 -12 8 -9 10 4 12 0 8 -15 -4 -17
-2 -20 13 -15 17 6 17 5 -1 -9 -16 -13 -17 -18 -6 -26 9 -6 10 -11 2 -15 -6
-4 -8 -18 -5 -32 3 -13 2 -24 -2 -24 -5 0 -10 -24 -11 -53 -1 -36 1 -46 7 -32
6 13 9 15 9 5 0 -8 -6 -24 -14 -34 -8 -10 -12 -22 -10 -26 3 -5 -11 -8 -30 -8
-19 0 -38 4 -41 9 -3 5 -10 6 -16 3 -7 -5 -8 27 -3 103 8 131 18 179 33 176 7
-2 12 2 12 8 0 6 9 9 20 6 10 -3 24 1 31 9 14 17 16 17 16 -1z m8263 -115 c0
-15 -5 -42 -11 -59 -8 -24 -9 -39 -1 -56 13 -28 -2 -85 -22 -85 -17 0 -63 51
-68 75 -2 11 6 36 17 55 12 19 25 50 28 69 4 19 12 41 19 48 10 13 14 12 25
-3 7 -10 13 -30 13 -44z m-89 -257 c6 -16 15 -36 20 -45 14 -28 11 -68 -5 -68
-8 0 -17 -9 -21 -19 -7 -23 -46 -35 -62 -18 -6 7 -14 39 -16 71 -4 53 -2 62
21 83 33 30 50 29 63 -4z m-8226 -5 c10 1 24 -3 30 -8 12 -10 55 -9 55 1 0 3
11 4 24 2 25 -5 41 -27 31 -44 -3 -5 -8 -52 -11 -106 -2 -54 -8 -105 -11 -113
-4 -8 -8 -35 -9 -60 -1 -25 -2 -53 -3 -64 -1 -16 -7 -18 -50 -13 -27 3 -57 10
-68 15 -10 5 -35 12 -55 16 l-37 7 4 97 c8 143 24 265 38 274 7 4 19 5 27 2 8
-4 24 -6 35 -6z m-62 -481 c9 -1 17 -4 17 -8 0 -4 8 -9 18 -11 13 -4 17 -13
16 -34 -1 -16 -3 -29 -4 -29 -1 0 -3 -8 -5 -18 -2 -9 0 -15 4 -12 5 2 6 -7 3
-20 -2 -14 -8 -25 -12 -25 -4 0 -11 -11 -14 -25 -4 -14 -11 -25 -16 -25 -6 0
-8 -11 -4 -26 5 -18 3 -25 -4 -20 -6 4 -8 -2 -5 -14 3 -11 0 -20 -6 -20 -6 0
-11 8 -12 18 0 13 -2 14 -6 2 -7 -16 -33 -39 -46 -40 -8 0 0 188 9 202 3 4 5
32 5 62 1 51 3 54 23 49 11 -3 29 -6 39 -6z m283 -520 c7 2 33 -7 58 -22 27
-15 53 -24 64 -21 10 3 26 0 36 -7 16 -12 16 -18 6 -56 -6 -24 -14 -40 -17
-37 -3 3 -12 -7 -20 -21 -9 -18 -11 -29 -4 -31 6 -2 11 -8 11 -13 0 -6 -5 -7
-10 -4 -17 10 -41 -16 -35 -36 4 -11 -1 -26 -10 -35 -9 -9 -14 -23 -11 -30 3
-8 -1 -14 -10 -14 -8 0 -17 -6 -20 -14 -4 -10 -13 -6 -34 16 -29 28 -30 28
-66 13 -20 -8 -39 -15 -42 -15 -4 0 -1 65 13 225 9 94 12 104 35 100 11 -2 20
1 20 8 0 8 3 8 11 0 6 -6 17 -9 25 -6z m-306 -32 c-9 -24 -3 -31 23 -26 5 1 1
-9 -7 -21 -19 -26 -22 -50 -3 -25 10 15 12 12 12 -23 1 -22 -2 -35 -6 -28 -4
6 -6 -9 -6 -34 2 -39 5 -44 22 -41 11 2 14 1 7 -3 -6 -3 -10 -10 -6 -15 3 -5
2 -9 -3 -9 -4 0 -9 -11 -9 -24 -1 -19 2 -23 18 -18 18 4 19 2 9 -17 -7 -11 -9
-21 -5 -21 4 0 4 -3 1 -7 -4 -3 -17 2 -29 13 -13 10 -18 12 -12 4 10 -15 13
-39 4 -41 -16 -3 -121 15 -125 21 -4 7 3 106 19 245 3 22 5 52 5 68 1 26 3 27
51 27 49 0 49 0 40 -25z m4428 -481 c-104 -56 -343 -109 -623 -139 -297 -31
-761 -28 -813 6 -14 8 -12 9 8 4 52 -13 548 -18 696 -6 295 23 531 68 669 125
65 27 107 34 63 10z m-3945 -74 c5 -4 -6 -11 -25 -15 -51 -11 -83 -40 -107
-96 -20 -46 -21 -52 -7 -68 22 -24 22 -124 0 -145 -13 -14 -13 -16 -1 -16 16
0 57 58 57 80 0 6 10 20 22 29 15 12 18 20 10 25 -7 4 -12 2 -12 -4 0 -6 -4
-9 -8 -6 -8 5 -4 116 4 125 2 3 16 -6 30 -20 l25 -24 -10 28 c-14 36 -6 49 25
41 18 -5 24 -2 24 11 0 14 6 15 33 10 40 -9 47 -13 47 -28 0 -7 9 -20 20 -30
12 -10 19 -21 16 -25 -2 -4 -7 -50 -10 -102 -10 -152 -15 -173 -38 -167 -17 5
-19 2 -14 -16 3 -12 3 -39 -1 -59 -5 -35 -8 -38 -37 -38 -17 1 -65 7 -106 14
-51 9 -78 10 -85 4 -7 -7 -6 -12 2 -15 10 -4 10 -8 -1 -18 -7 -8 -19 -51 -26
-95 -11 -69 -11 -83 1 -91 21 -13 36 8 21 31 -11 18 -10 20 10 20 46 0 67 -12
70 -38 4 -35 28 -41 28 -7 0 21 4 26 16 21 9 -3 31 -6 50 -6 19 0 34 -5 34
-11 0 -6 -7 -9 -15 -5 -8 3 -15 1 -15 -3 0 -17 34 -22 42 -6 10 17 58 21 58 5
0 -6 -8 -10 -17 -8 -26 5 -27 -27 -1 -40 l23 -11 -22 0 c-12 -1 -25 4 -28 10
-4 6 -19 7 -36 4 -15 -4 -36 -2 -46 4 -16 9 -15 10 7 11 l25 1 -24 10 c-18 7
-26 5 -36 -8 -19 -26 -65 -3 -65 33 0 30 -23 28 -28 -3 -2 -14 -11 -20 -28
-20 -14 0 -28 -4 -32 -8 -10 -10 -10 -623 -1 -840 8 -180 19 -281 57 -535 19
-120 46 -313 57 -395 2 -16 6 -68 9 -115 5 -80 4 -82 -5 -30 -6 30 -12 78 -15
105 -4 51 -22 148 -32 175 -4 8 -7 33 -7 55 -1 61 -15 157 -36 258 -10 51 -22
117 -25 147 -5 56 -7 73 -18 215 -5 64 -11 84 -27 98 -14 11 -17 17 -8 18 11
0 11 2 1 6 -10 4 -10 8 0 21 10 13 11 14 0 8 -9 -6 -11 -1 -8 19 6 35 16 45
16 17 0 -37 17 -24 18 13 1 20 -2 34 -7 31 -4 -3 -6 6 -3 21 3 18 1 24 -7 19
-8 -6 -10 0 -5 18 4 15 2 26 -4 26 -6 0 -10 28 -10 68 0 137 -15 617 -20 622
-2 3 -7 -1 -9 -8 -3 -6 -9 -10 -14 -6 -5 3 -1 18 10 33 15 21 21 51 26 127 8
143 15 211 26 276 11 65 44 164 60 184 6 8 9 14 5 14 -12 0 59 72 79 81 21 9
64 3 78 -11z m418 -120 c11 0 23 -10 28 -23 10 -26 71 -38 71 -14 0 21 62 8
67 -14 3 -10 14 -21 24 -24 18 -6 19 -14 14 -128 -8 -167 -9 -170 -45 -165
-33 5 -36 1 -17 -24 8 -9 11 -32 9 -52 -3 -29 -8 -36 -26 -36 -37 0 -201 31
-210 40 -12 12 2 76 17 78 6 1 24 4 39 8 21 5 29 2 35 -12 4 -10 2 -19 -4 -21
-14 -5 -1 -55 15 -61 7 -2 12 5 12 17 0 12 3 20 8 20 4 -1 16 -1 27 0 19 2 19
2 3 15 -24 17 -23 26 3 26 31 0 14 17 -25 24 -55 11 -59 22 -50 144 5 60 8
116 6 125 -3 15 -5 15 -28 1 -18 -12 -22 -22 -18 -40 4 -14 3 -54 -1 -89 -5
-48 -11 -65 -22 -65 -10 0 -14 9 -12 33 2 17 5 36 7 41 3 5 6 48 7 96 2 94 9
115 32 106 8 -3 23 -6 34 -6z m-80 -890 c30 -6 268 -41 529 -80 261 -38 502
-74 535 -80 33 -5 80 -12 105 -15 25 -4 68 -15 95 -25 28 -11 76 -22 108 -25
l57 -6 0 -44 0 -45 -112 6 c-62 3 -140 11 -173 16 -33 6 -89 14 -125 18 -36 4
-139 19 -230 33 -91 14 -235 36 -320 48 -85 12 -252 36 -370 53 l-215 31 -1
40 c-1 70 5 85 35 85 15 0 52 -5 82 -10z m760 -427 c13 -15 12 -16 -8 -11 -25
7 -30 -1 -11 -20 18 -18 25 -15 32 13 5 18 13 25 31 25 13 0 26 -4 29 -9 3 -5
24 -7 46 -4 26 4 40 2 40 -6 0 -6 -9 -11 -20 -11 -11 0 -20 -4 -20 -10 0 -5 4
-10 9 -10 5 0 16 -3 24 -6 9 -3 16 3 20 15 5 22 50 30 61 12 3 -5 15 -7 26 -4
17 5 20 0 21 -33 l1 -39 14 33 c17 40 35 37 48 -6 12 -42 26 -41 26 3 0 26 3
33 15 29 11 -5 13 -16 9 -46 -6 -34 -4 -40 15 -45 11 -3 21 -10 21 -15 0 -15
-82 -1 -99 17 -11 10 -18 11 -32 2 -14 -9 -24 -9 -37 -1 -10 6 -26 8 -38 4
-11 -5 -27 -4 -35 1 -8 5 -33 9 -56 9 -41 0 -43 2 -43 29 0 24 -3 28 -24 24
-14 -3 -27 -14 -30 -26 -6 -22 -7 -22 -21 -3 -8 11 -15 14 -15 8 0 -19 -57
-15 -64 4 -9 22 0 30 18 15 9 -8 16 -8 20 -2 4 6 -2 15 -13 20 -21 12 -34 38
-25 52 9 15 51 10 65 -8z m-1637 -1629 c9 -3 13 -10 10 -15 -3 -5 -1 -9 5 -9
5 0 11 5 13 10 2 6 19 13 39 16 29 5 41 2 58 -15 12 -12 21 -27 19 -32 -2 -6
-28 -19 -58 -30 -51 -18 -55 -18 -73 -1 -10 9 -21 16 -23 15 -11 -7 -24 -1
-24 10 0 8 -7 14 -15 14 -8 0 -14 -7 -13 -16 2 -11 -5 -16 -20 -16 -42 0 -55
-51 -26 -106 22 -43 10 -49 -15 -8 -39 64 -18 148 42 174 35 16 57 18 81 9z
m388 -24 c13 -5 33 -17 46 -27 l22 -18 -36 1 c-41 2 -75 -13 -107 -48 -24 -28
-34 -54 -16 -42 7 4 9 0 5 -13 -9 -28 14 -44 52 -37 18 4 30 10 27 14 -2 4 7
5 20 2 32 -6 31 -15 -1 -41 -88 -69 -209 48 -159 152 25 54 92 80 147 57z
m385 -35 c23 -14 43 -27 43 -29 0 -2 -18 -2 -40 0 -27 2 -40 -2 -40 -10 0 -8
-10 -12 -25 -11 -17 2 -26 -3 -30 -16 -4 -10 -13 -19 -21 -19 -19 0 -17 -40 4
-67 14 -19 23 -22 55 -16 29 4 35 8 26 19 -8 10 -5 11 20 1 l31 -11 -21 -23
c-64 -67 -179 -9 -179 92 0 40 28 85 63 100 46 20 65 18 114 -10z m356 -26
c29 -17 43 -28 33 -25 -34 12 -113 -15 -125 -41 -6 -13 -16 -21 -21 -18 -13 8
-13 -35 -1 -54 6 -9 27 -15 54 -16 25 0 43 3 41 7 -6 10 -1 10 20 2 14 -5 12
-10 -11 -30 -51 -44 -125 -27 -158 36 -41 79 8 163 98 169 10 0 41 -13 70 -30z
m318 -8 c13 -10 31 -21 39 -24 9 -3 4 -6 -12 -6 -37 -1 -59 -11 -51 -24 3 -5
1 -7 -5 -4 -16 11 -37 -1 -62 -36 -18 -23 -19 -28 -5 -17 17 14 18 14 6 -9
-17 -31 -3 -43 53 -46 35 -1 43 1 35 11 -8 9 -5 11 11 7 17 -5 18 -8 8 -22
-22 -28 -42 -40 -66 -41 -49 0 -97 43 -108 97 -18 92 87 169 157 114z m314
-13 c14 -6 25 -15 25 -20 0 -4 10 -9 23 -9 12 -1 -1 -6 -29 -13 -56 -12 -84
-30 -84 -53 0 -9 -6 -13 -15 -9 -18 7 -18 4 -2 -37 13 -29 18 -32 53 -31 21 1
38 6 37 12 -1 5 7 8 18 5 20 -6 20 -7 -5 -31 -87 -87 -219 62 -139 158 32 38
73 48 118 28z m342 -34 l48 -26 -37 4 c-21 2 -38 0 -38 -4 0 -4 -9 -8 -20 -8
-11 0 -30 -15 -44 -36 -21 -31 -23 -40 -13 -61 9 -20 16 -24 41 -19 17 3 38 1
46 -4 13 -9 12 -12 -4 -25 -58 -44 -146 23 -146 112 0 33 60 93 93 93 14 0 48
-12 74 -26z m298 -14 c17 -19 17 -20 -1 -26 -50 -16 -65 -26 -74 -49 -6 -15
-14 -23 -20 -20 -13 8 -13 3 0 -30 6 -17 16 -25 27 -24 10 2 31 0 48 -5 29 -7
29 -8 11 -22 -64 -46 -157 29 -141 113 9 51 45 83 93 83 26 0 45 -7 57 -20z
m303 -20 l32 -18 -37 -7 c-46 -8 -83 -30 -83 -49 0 -8 -6 -16 -12 -19 -10 -3
-10 -9 1 -29 10 -20 21 -26 47 -25 18 1 37 -3 41 -7 11 -11 -27 -36 -55 -36
-29 0 -79 48 -88 85 -11 43 14 101 50 119 33 16 51 14 104 -14z m-2332 -411
c3 -6 15 -9 25 -6 11 3 19 1 19 -5 0 -17 -35 -55 -47 -51 -6 2 -19 -13 -28
-34 -35 -80 -41 -89 -75 -126 -56 -61 -56 -65 -2 -60 41 3 52 0 82 -26 l35
-30 -36 -1 c-26 0 -39 -5 -43 -17 -6 -14 -9 -15 -16 -4 -11 19 -38 7 -50 -23
-5 -13 -14 -26 -21 -28 -10 -3 -10 -11 1 -37 l13 -33 60 6 c44 4 58 3 55 -7
-12 -34 -106 -49 -144 -22 -25 17 -54 74 -54 106 0 12 10 33 22 46 12 13 16
23 10 23 -24 0 -10 27 57 108 38 46 68 88 68 95 -1 40 5 55 24 60 12 3 20 13
19 24 -5 48 8 70 26 42z m-436 -284 c10 -12 9 -15 -4 -15 -10 0 -14 -4 -11
-10 3 -5 22 -1 45 11 47 25 63 21 85 -20 14 -29 14 -31 -5 -41 -11 -6 -43 -14
-70 -17 -42 -5 -50 -3 -50 11 0 9 -8 16 -20 16 -11 0 -20 7 -20 15 0 8 -7 15
-15 15 -9 0 -12 -6 -9 -15 5 -11 -1 -15 -20 -15 -47 0 -63 -76 -25 -124 11
-14 16 -26 11 -26 -9 0 -51 42 -50 50 1 3 -2 16 -7 28 -11 37 21 110 59 133
37 23 89 25 106 4z m777 -35 l34 -30 -28 -1 c-64 -3 -89 -9 -103 -27 -8 -10
-23 -21 -33 -25 -20 -7 -16 -40 7 -64 13 -15 99 -26 90 -12 -6 11 -2 11 20 3
12 -5 13 -8 3 -18 -45 -46 -110 -44 -151 5 -20 24 -26 42 -26 79 0 41 5 54 34
84 28 30 40 36 76 36 33 0 50 -7 77 -30z m350 -3 c18 -12 33 -24 33 -27 0 -3
-17 -6 -37 -7 -20 -1 -39 -5 -42 -10 -3 -4 -14 -8 -24 -8 -11 0 -25 -15 -37
-42 -15 -35 -16 -44 -5 -60 10 -14 22 -18 49 -15 20 2 34 8 31 12 -2 4 7 5 20
2 14 -2 22 -9 19 -14 -3 -5 -8 -7 -11 -4 -2 2 -13 -4 -24 -15 -39 -39 -114
-18 -144 41 -27 51 -17 100 29 146 38 39 86 39 143 1z m330 -1 c15 -12 35 -26
43 -29 8 -3 -1 -6 -21 -6 -48 -1 -99 -20 -99 -36 0 -8 -7 -21 -16 -30 -10 -10
-14 -24 -10 -40 5 -21 12 -25 46 -25 41 0 60 -14 41 -33 -20 -20 -83 -9 -113
20 -97 93 26 265 129 179z m340 -10 l28 -24 -40 -7 c-44 -8 -85 -39 -85 -64 0
-14 -1 -14 -10 -1 -8 12 -10 9 -10 -12 0 -36 25 -58 66 -58 36 0 42 -8 22 -28
-23 -23 -68 -14 -104 22 -29 29 -34 41 -34 81 0 40 5 52 34 81 43 43 91 46
133 10z m329 -15 l24 -19 -42 -7 c-53 -9 -78 -22 -78 -40 0 -8 -8 -18 -17 -24
-14 -8 -15 -13 -6 -34 9 -20 21 -26 50 -29 46 -4 53 -31 9 -36 -43 -5 -83 16
-100 53 -22 46 -20 83 7 122 36 55 95 60 153 14z m-1830 -601 c8 -38 22 -39
26 -2 2 16 9 27 18 27 11 0 15 -11 14 -45 -4 -121 -1 -110 -39 -110 -31 0 -35
3 -41 35 -3 19 -10 35 -15 35 -5 0 -9 -16 -9 -35 0 -28 -4 -35 -19 -35 -17 0
-19 6 -15 58 7 91 10 97 44 100 27 2 31 -1 36 -28z"/>
<path d="M8250 7907 c14 -8 24 -19 23 -25 -3 -12 9 -16 35 -13 6 1 12 -3 12
-9 0 -5 6 -10 13 -10 8 0 24 -11 37 -25 24 -25 13 -36 -12 -12 -27 24 -55 35
-69 27 -11 -7 -10 -10 5 -16 11 -4 16 -14 13 -25 -5 -17 13 -30 37 -28 5 0 13
-6 18 -15 14 -24 30 -19 23 7 -7 21 -7 21 11 4 18 -17 18 -19 2 -31 -10 -7
-18 -17 -18 -21 0 -4 7 -2 15 5 13 10 19 8 35 -13 12 -15 35 -36 51 -48 26
-18 33 -19 40 -8 4 8 4 18 -1 23 -4 4 -6 15 -3 22 3 8 0 15 -6 15 -26 3 -30 4
-38 13 -5 5 -2 6 6 1 10 -6 12 -2 6 16 -7 23 -7 23 8 4 15 -19 16 -19 13 -1
-2 11 -11 25 -21 30 -42 26 -75 62 -64 73 7 7 2 17 -19 32 -36 25 -67 28 -58
5 5 -12 1 -14 -17 -8 -12 3 -34 15 -49 25 -14 11 -32 19 -40 19 -7 0 -2 -6 12
-13z"/>
<path d="M6291 8152 c-1 -7 -9 -12 -18 -11 -10 2 -27 -1 -38 -7 -21 -11 -46
-11 -89 0 -15 4 -25 3 -23 -1 7 -11 -65 -10 -82 2 -10 5 -16 4 -19 -3 -2 -7
-8 -9 -14 -6 -5 3 -2 -8 6 -25 9 -17 21 -31 27 -31 6 0 7 5 3 12 -5 7 -3 8 7
3 7 -5 46 -8 86 -7 44 0 71 -3 68 -9 -12 -18 5 -28 30 -17 13 6 24 14 23 17
-2 20 5 30 25 38 19 6 22 13 16 33 -4 14 -7 19 -8 12z"/>
<path d="M9936 7211 c-11 -8 -28 -23 -37 -33 -9 -10 -23 -18 -32 -18 -11 0
-37 -45 -37 -64 0 -1 28 -1 63 -1 38 1 76 8 99 19 35 17 37 20 36 67 l-1 49
-35 -3 c-19 -1 -44 -8 -56 -16z"/>
<path d="M10140 7050 c0 -4 21 -18 48 -32 36 -18 48 -30 50 -51 4 -36 -13 -34
-28 3 -15 37 -36 53 -28 22 4 -12 3 -22 -1 -22 -11 0 -10 -33 1 -47 6 -7 7
-24 4 -39 -9 -36 2 -64 25 -64 15 0 19 -7 19 -31 0 -17 5 -39 11 -50 17 -33
30 -11 23 42 -6 42 -4 49 9 43 11 -4 14 -15 12 -37 -4 -28 -3 -29 7 -13 13 23
11 114 -3 170 -13 48 -63 94 -114 106 -19 4 -35 4 -35 0z"/>
<path d="M9620 5635 c0 -15 -7 -33 -15 -39 -8 -6 -16 -28 -18 -49 -3 -21 -2
-35 1 -32 3 3 17 -5 30 -17 17 -16 26 -19 29 -10 3 6 11 12 19 12 9 0 13 -4 9
-9 -3 -5 0 -13 6 -17 7 -4 9 -3 5 4 -3 6 -2 13 4 17 18 11 11 27 -10 22 -11
-3 -18 -1 -14 4 3 5 11 9 18 9 27 0 67 26 73 48 3 13 1 34 -5 47 -10 21 -17
23 -59 21 -26 -1 -54 2 -60 7 -10 7 -13 2 -13 -18z"/>
<path d="M4764 4488 c-4 -5 -17 -7 -29 -4 -13 3 -26 2 -29 -3 -8 -13 15 -29
44 -30 117 -4 131 -7 113 -25 -8 -8 -9 -13 -12 -41 -1 -12 -5 -13 -20 -5 -14
7 -21 6 -24 -3 -3 -9 -7 -9 -19 0 -8 7 -18 10 -21 6 -4 -3 -7 -1 -7 5 0 7 -4
12 -10 12 -5 0 -6 -8 -3 -17 5 -13 3 -15 -13 -9 -36 14 -96 16 -91 3 4 -13 22
-17 110 -21 32 -2 60 -6 64 -10 13 -13 43 -5 44 12 0 13 2 12 9 -5 13 -31 55
-32 47 -2 -6 21 -5 21 19 -2 18 -16 27 -20 35 -12 15 15 3 33 -22 33 -10 0
-19 4 -19 9 0 5 -8 7 -18 4 -10 -2 -24 2 -31 11 -14 16 -7 36 12 35 9 0 9 -2
0 -6 -20 -8 -15 -23 8 -23 13 0 18 4 13 12 -4 7 -3 8 4 4 6 -4 23 1 37 10 14
9 34 14 48 11 37 -10 50 6 27 31 -22 23 -50 29 -50 11 0 -6 -6 -4 -14 4 -17
16 -193 21 -202 5z"/>
<path d="M4777 4273 c-4 -3 -7 -15 -7 -25 0 -10 -2 -18 -5 -18 -12 0 -55 24
-55 32 0 4 -4 8 -8 8 -5 0 -9 -7 -9 -15 0 -8 6 -15 14 -15 7 0 13 -5 13 -11 0
-5 -4 -8 -8 -5 -4 3 -28 7 -53 10 -26 3 -38 2 -30 -3 17 -11 -1 -23 -23 -15
-9 3 -16 1 -16 -5 0 -6 5 -11 11 -11 6 0 8 -9 4 -20 -5 -16 -2 -20 17 -20 18
0 20 2 8 10 -11 7 -12 12 -4 20 9 9 15 3 24 -22 10 -26 14 -29 17 -14 3 10 1
21 -5 25 -5 3 -9 14 -9 24 0 12 8 17 26 16 17 -1 20 -3 8 -6 -14 -4 -16 -12
-11 -44 7 -41 -8 -53 -35 -26 -10 10 -11 9 -6 -5 4 -10 11 -18 16 -18 5 0 9
-11 9 -25 0 -18 4 -23 15 -19 12 5 13 10 4 20 -15 18 11 20 30 2 10 -9 12 -9
7 -1 -3 6 -2 14 4 18 5 3 10 -1 10 -9 0 -9 9 -16 20 -16 11 0 24 -8 28 -17 4
-10 14 -19 22 -21 12 -3 13 -1 3 9 -16 16 -17 33 -1 23 6 -4 8 -3 4 4 -3 6 -2
13 4 17 5 3 10 11 10 16 0 6 -4 7 -10 4 -5 -3 -10 -4 -10 0 0 3 10 10 23 16
21 9 20 9 -5 6 -30 -4 -33 0 -19 22 5 7 13 11 19 7 6 -3 13 -2 17 3 3 5 -3 14
-12 20 -17 10 -16 10 3 11 11 0 21 7 21 14 0 11 -5 12 -17 6 -12 -6 -17 -5
-17 6 0 8 10 14 24 14 29 0 30 16 2 25 -14 5 -25 2 -30 -6 -6 -10 -9 -11 -9
-1 0 13 -13 16 -23 5z"/>
<path d="M6530 4141 c0 -7 -9 -8 -166 -11 -66 -2 -126 0 -132 4 -6 3 -13 2
-17 -4 -4 -6 -12 -7 -24 -1 -13 7 -18 6 -18 -3 0 -8 12 -12 32 -11 17 0 39 -7
50 -17 10 -10 13 -18 7 -18 -17 0 -15 -17 4 -24 9 -4 13 -2 8 5 -3 6 4 4 17
-4 13 -8 32 -13 41 -12 15 3 16 0 7 -17 -8 -16 -8 -19 1 -13 9 5 10 1 6 -16
-3 -13 -3 -19 0 -12 3 7 12 9 20 6 8 -3 22 1 31 8 15 13 15 12 4 -9 -10 -18
-9 -26 4 -44 8 -13 15 -17 15 -10 0 8 7 20 15 28 13 14 16 14 21 0 3 -8 3 -20
-1 -26 -3 -5 0 -10 8 -10 8 0 18 -7 21 -16 3 -8 2 -13 -3 -10 -5 3 -32 8 -61
12 -42 5 -51 4 -45 -7 6 -9 4 -11 -8 -6 -11 4 -17 1 -17 -8 0 -22 66 -20 79 3
9 15 10 14 11 -6 0 -13 4 -21 9 -18 5 3 12 -1 15 -10 3 -8 2 -12 -4 -9 -5 3
-25 7 -44 9 -28 2 -33 0 -24 -11 8 -10 7 -13 -5 -13 -9 0 -19 5 -22 10 -3 6
-11 10 -16 10 -6 0 -7 -5 -3 -11 4 -8 0 -9 -15 -4 -32 10 -25 -12 10 -30 29
-16 38 -53 11 -47 -17 3 -15 -15 2 -21 8 -3 17 -1 20 6 3 9 5 9 5 0 1 -19 -17
-25 -40 -12 -20 10 -21 9 -16 -10 3 -11 1 -21 -4 -21 -4 0 -6 -7 -2 -16 3 -9
1 -19 -6 -23 -6 -4 -9 -15 -5 -25 5 -14 9 -15 15 -4 6 8 9 9 9 1 0 -6 -12 -20
-26 -30 -21 -16 -22 -19 -7 -20 10 -1 29 -4 43 -7 21 -5 22 -5 5 3 -14 7 -15
10 -5 10 8 0 21 -3 28 -8 11 -7 10 -10 -3 -15 -9 -3 -25 -6 -36 -6 -11 0 -19
-7 -19 -17 0 -15 18 -16 203 -9 189 6 390 24 482 43 31 7 36 10 22 16 -11 4
-23 4 -29 1 -12 -8 -38 27 -31 41 4 5 3 7 -2 3 -5 -5 -22 3 -39 15 -32 25 -56
25 -56 2 0 -7 -6 -12 -14 -11 -19 3 -48 34 -37 41 5 3 12 1 15 -4 4 -5 14 -8
24 -6 9 2 20 4 25 4 16 2 6 29 -17 47 -14 10 -22 22 -19 27 3 5 -4 4 -15 -2
-16 -9 -19 -7 -18 7 0 9 -5 16 -11 15 -7 -2 -15 8 -19 21 -7 28 -26 38 -51 29
-13 -4 -11 1 6 15 15 14 19 22 10 22 -12 0 -12 2 0 9 21 13 22 39 2 37 -12 -1
-16 9 -17 47 -2 53 7 60 24 20 11 -26 11 -26 6 -3 -3 14 -6 36 -6 50 0 16 -2
19 -5 8 -2 -10 -12 -18 -21 -18 -10 0 -13 3 -7 8 13 9 16 42 4 42 -5 0 -9 -6
-10 -12 0 -7 -5 -1 -10 14 -6 15 -22 31 -37 37 -22 8 -23 10 -7 11 19 1 19 1
2 15 -12 9 -27 11 -40 6 -12 -4 -36 -5 -54 -1 -18 5 -33 5 -33 1z"/>
<path d="M5879 3643 c-9 -2 -21 -15 -28 -29 -8 -19 -16 -24 -31 -19 -11 4 -20
2 -20 -4 0 -5 15 -13 33 -15 137 -23 321 -35 334 -22 3 3 -1 6 -10 6 -9 0 -17
5 -17 10 0 6 -11 10 -24 10 -13 0 -26 4 -28 8 -8 20 -65 50 -78 42 -8 -5 -21
-5 -31 1 -10 5 -28 7 -41 5 -13 -2 -27 0 -33 3 -5 4 -17 6 -26 4z"/>
<path d="M9622 3532 c15 -65 37 -164 48 -222 11 -58 27 -139 36 -180 9 -41 15
-87 15 -102 -1 -16 6 -44 14 -64 8 -20 15 -45 15 -55 0 -11 6 -28 12 -39 10
-16 10 -24 0 -40 -14 -22 -16 -70 -4 -70 16 0 31 47 19 59 -8 8 -5 11 11 11
19 0 22 5 19 33 -2 18 -7 38 -11 45 -4 7 -5 16 -2 21 3 5 -1 14 -9 21 -8 7
-15 19 -15 27 0 7 -7 25 -16 39 -16 24 -16 59 1 109 6 18 5 18 -5 3 -6 -10
-16 -18 -22 -18 -6 0 1 11 15 24 14 13 29 36 33 50 7 29 37 60 34 35 -4 -28 0
-39 15 -39 8 0 15 8 16 18 0 14 2 14 9 -3 13 -30 12 -34 -9 -28 -15 4 -20 0
-18 -15 1 -15 5 -18 13 -11 8 7 14 6 19 -1 3 -5 2 -10 -2 -10 -5 0 -9 -15 -10
-32 0 -18 -4 -43 -8 -55 -5 -15 -3 -23 4 -23 5 0 8 8 5 18 -5 14 -4 14 6 -2
10 -15 9 -20 -1 -27 -11 -7 -11 -9 1 -9 22 0 42 -57 29 -82 -6 -10 -8 -24 -5
-31 2 -7 5 -3 6 8 l1 20 8 -20 c5 -11 5 -28 0 -37 -14 -26 -10 -51 10 -75 19
-22 38 -32 26 -14 -3 5 -2 12 2 14 5 3 9 -27 11 -66 1 -50 -1 -67 -8 -57 -7
11 -10 11 -10 2 0 -7 -5 -10 -12 -6 -7 4 -8 3 -4 -4 4 -7 1 -12 -6 -12 -10 0
-10 -2 1 -9 8 -5 11 -16 7 -26 -3 -10 -1 -24 5 -31 8 -10 6 -12 -12 -9 -17 3
-20 2 -11 -7 21 -21 -16 -65 -60 -72 -21 -3 -56 -9 -78 -12 -35 -5 -40 -9 -40
-34 0 -26 26 -60 47 -60 6 0 16 7 24 16 13 15 16 15 121 2 17 -2 20 -18 5 -29
-7 -5 -12 -38 -20 -111 -1 -10 -5 -18 -9 -18 -4 0 -8 -5 -8 -12 0 -6 3 -8 7
-5 3 4 16 -4 29 -18 16 -17 29 -23 41 -18 17 7 17 6 0 -11 -16 -17 -25 -17
-105 -6 -48 7 -109 14 -135 17 l-48 5 29 -49 c16 -27 33 -62 39 -78 8 -25 16
-31 47 -33 20 -2 72 4 114 13 42 9 101 20 131 25 30 5 70 20 90 33 37 24 61
25 61 2 0 -17 -27 -38 -53 -42 -40 -5 -96 -36 -102 -54 -4 -11 -11 -19 -16
-19 -13 0 -11 18 4 23 7 3 6 6 -5 6 -9 1 -19 -8 -23 -18 -4 -14 -15 -19 -45
-18 -22 1 -40 5 -40 10 0 4 4 6 9 2 5 -3 12 -1 16 5 6 10 -44 8 -123 -6 l-34
-5 7 -82 c4 -45 9 -94 10 -109 1 -15 28 -56 65 -100 34 -40 73 -86 86 -102 19
-22 28 -26 36 -18 13 13 92 15 123 3 13 -5 28 -3 43 7 19 12 22 23 22 81 0 37
5 72 11 78 7 7 12 62 14 143 l2 132 -26 -6 c-48 -12 -54 -11 -56 7 -4 22 21
36 58 31 27 -3 28 -1 26 34 -2 21 0 42 2 47 17 30 30 108 27 165 l-3 65 -41
-3 c-71 -5 -67 26 4 37 l34 6 0 273 c-1 150 3 284 8 296 7 19 3 34 -21 70 -16
26 -29 49 -29 51 0 2 -13 24 -29 48 -17 24 -53 88 -82 143 -103 197 -159 282
-159 243 0 -10 -3 -10 -12 -1 -10 10 -10 15 2 23 13 9 13 10 0 7 -8 -1 -24 2
-35 8 -11 5 -27 9 -35 8 -8 -1 -21 -2 -27 -3 -20 -2 -15 -19 7 -26 51 -16 63
-125 14 -125 -22 0 -44 55 -44 109 l0 49 -33 -2 c-18 -2 -45 -11 -59 -20 -25
-16 -26 -16 -33 11 -8 29 -11 40 -13 59 -1 7 -8 14 -15 17 -10 4 -6 -26 15
-111z"/>
<path d="M7962 3269 c-9 -3 -23 -4 -31 -1 -7 3 -16 -1 -21 -8 -4 -6 -24 -12
-44 -12 -24 0 -36 -5 -36 -14 0 -8 -6 -11 -15 -8 -24 9 -67 -5 -59 -19 5 -9 4
-9 -5 -1 -14 13 -71 6 -71 -8 0 -6 -9 -8 -20 -5 -11 3 -27 -1 -35 -9 -9 -9
-23 -12 -38 -9 -16 4 -26 2 -30 -7 -3 -9 -17 -13 -35 -12 -30 2 -51 -19 -32
-31 8 -5 88 11 150 30 8 2 40 11 70 19 155 40 318 85 340 93 20 9 17 10 -23 9
-26 -1 -55 -4 -65 -7z"/>
<path d="M7102 3061 c-7 -4 -30 -7 -50 -6 -20 1 -41 -1 -47 -4 -5 -3 -22 -6
-37 -7 -16 -1 -29 -2 -30 -3 -2 -1 -28 -4 -58 -7 -30 -2 -63 -7 -72 -10 -9 -2
-22 1 -29 9 -11 11 -17 11 -38 1 -17 -9 -30 -10 -43 -3 -10 5 -18 6 -18 1 0
-9 -8 -11 -60 -14 -16 -1 -27 -5 -24 -10 8 -12 -11 -10 -42 7 -16 8 -31 10
-34 5 -3 -5 -26 -8 -52 -7 -26 1 -44 5 -42 9 7 10 -25 -2 -54 -20 -15 -10 -26
-12 -30 -5 -4 6 -27 7 -57 4 -73 -9 -35 -19 78 -20 63 -1 97 2 97 9 0 6 5 8
11 4 14 -8 139 -12 139 -4 0 3 48 5 108 6 148 1 404 24 421 37 8 7 16 11 18
10 1 -2 9 -3 16 -3 6 1 -3 7 -22 15 -39 17 -33 17 -49 6z"/>
<path d="M7375 2578 c-16 -6 -33 -15 -36 -20 -3 -5 -25 -10 -47 -11 -23 -1
-42 -4 -42 -8 0 -7 -6 -8 -125 -12 -55 -1 -105 -6 -112 -10 -7 -4 -29 -8 -50
-9 -21 0 -46 -5 -55 -10 -12 -5 -18 -5 -18 2 0 5 -5 10 -11 10 -5 0 -8 -4 -4
-9 3 -5 1 -12 -5 -16 -5 -3 -10 -1 -10 4 0 6 -7 11 -15 11 -8 0 -15 -4 -15 -9
0 -6 -12 -6 -31 -1 -19 6 -39 5 -54 -2 -13 -6 -36 -7 -52 -3 -64 17 -161 7
-148 -16 4 -5 -16 -9 -44 -9 -27 0 -57 -3 -67 -7 -13 -5 -15 -3 -9 7 6 10 4
12 -9 7 -10 -4 -24 -7 -32 -7 -8 0 -14 -5 -14 -12 0 -8 59 -10 233 -5 127 4
248 9 267 11 19 3 82 10 140 16 133 13 240 32 240 42 0 4 6 5 13 2 15 -5 137
19 182 36 29 11 29 12 11 26 -23 16 -39 17 -81 2z"/>
<path d="M9550 2222 c0 -9 -9 -23 -20 -30 -11 -6 -29 -30 -40 -51 l-20 -40 33
-20 c18 -11 66 -26 106 -32 40 -7 74 -17 76 -23 2 -6 6 -25 9 -43 4 -25 2 -31
-9 -27 -7 3 -11 12 -8 20 4 11 -5 14 -36 14 -23 0 -41 -3 -41 -6 0 -5 60 -78
113 -138 l28 -31 -5 55 c-7 90 -35 184 -72 246 -19 32 -32 64 -29 71 2 8 1 12
-4 8 -5 -3 -23 6 -39 20 -35 30 -42 31 -42 7z"/>
<path d="M9406 1985 c-22 -34 -20 -44 13 -74 76 -68 199 -235 260 -353 35 -67
65 -133 67 -146 7 -36 32 -90 33 -70 1 19 -37 124 -71 198 -11 25 -25 55 -31
67 -5 11 -6 26 -3 32 4 6 3 11 -2 11 -11 0 -92 118 -92 133 0 6 -11 24 -24 42
-24 31 -51 76 -88 148 -23 43 -39 47 -62 12z"/>
<path d="M9297 1803 c-20 -36 -37 -68 -37 -72 0 -7 -87 -39 -132 -48 -16 -3
-28 -9 -28 -14 0 -5 -10 -9 -21 -9 -19 0 -21 4 -16 36 5 28 3 33 -7 25 -7 -6
-12 -26 -11 -45 2 -18 -1 -40 -6 -47 -6 -10 -9 -6 -9 13 0 46 -16 40 -71 -25
-58 -67 -202 -219 -259 -272 -133 -123 -177 -154 -400 -285 -24 -14 -330 -165
-380 -188 -25 -11 -63 -25 -85 -32 -22 -7 -44 -16 -50 -20 -12 -8 -134 -50
-230 -78 -152 -45 -266 -68 -525 -106 -19 -3 -87 -8 -150 -12 -63 -3 -124 -7
-135 -9 -11 -1 -28 2 -39 7 -14 8 -17 7 -11 -3 7 -10 -28 -11 -171 -5 -98 4
-188 7 -199 7 -30 -1 -280 47 -365 71 -112 30 -218 66 -285 97 -33 15 -89 41
-125 56 -89 39 -246 121 -295 154 -22 15 -47 30 -55 33 -9 3 -61 41 -115 83
-100 78 -163 139 -193 185 -9 14 -42 57 -72 97 -30 40 -81 110 -113 155 -31
46 -66 94 -78 108 -17 21 -20 22 -16 5 13 -54 40 -142 48 -157 13 -25 12 -61
-2 -52 -8 5 -8 1 0 -14 8 -16 7 -21 -4 -26 -8 -3 -15 -9 -14 -13 3 -20 -2 -34
-11 -28 -5 3 -10 1 -10 -4 0 -6 4 -11 9 -11 5 0 9 -11 9 -24 0 -16 -5 -23 -14
-19 -9 3 -11 -4 -8 -27 4 -23 1 -35 -12 -44 -13 -10 -14 -15 -5 -20 9 -6 8
-13 -5 -27 -13 -15 -14 -19 -3 -19 11 0 11 -2 -1 -10 -9 -6 -11 -13 -5 -18 19
-13 17 -35 -2 -28 -12 4 -9 -1 7 -14 16 -13 19 -18 7 -14 -15 6 -17 3 -11 -21
6 -25 5 -26 -14 -16 -17 9 -19 8 -15 -9 3 -11 10 -20 15 -20 5 0 6 -5 3 -11
-4 -6 1 -17 11 -25 18 -14 18 -14 -3 -5 -27 14 -36 14 -28 1 3 -5 1 -10 -4
-10 -6 0 -11 -8 -11 -19 0 -10 -7 -25 -17 -32 -15 -13 -15 -12 -5 6 9 17 7 21
-7 21 -18 0 -21 -21 -7 -44 7 -12 6 -13 -16 -16 -6 0 -12 -11 -13 -23 -3 -35
53 -42 94 -12 17 12 31 26 31 31 0 13 81 50 97 44 18 -7 11 -32 -7 -28 -11 3
-11 0 -1 -12 15 -18 5 -40 -15 -32 -22 8 -23 -72 -1 -86 9 -6 9 -8 0 -8 -7 0
-16 8 -22 17 -9 17 -11 17 -27 1 -16 -16 -16 -17 9 -24 28 -7 38 -34 12 -34
-8 0 -15 -4 -15 -10 0 -5 4 -10 8 -10 4 0 8 -8 8 -19 0 -11 -5 -17 -13 -14
-31 12 -6 -34 28 -51 13 -6 24 -18 24 -26 0 -8 5 -18 10 -22 6 -4 2 -8 -8 -8
-10 0 -15 -5 -12 -10 3 -6 -7 -18 -23 -27 -18 -10 -30 -25 -30 -38 0 -11 -2
-29 -4 -40 -3 -13 2 -23 16 -30 12 -7 21 -20 20 -33 0 -17 4 -21 15 -17 13 4
12 2 -2 -9 -14 -11 -15 -15 -3 -25 11 -9 15 -7 20 14 l6 25 22 -20 c21 -19 35
-56 18 -45 -5 3 -11 1 -14 -4 -3 -5 15 -21 40 -36 39 -23 44 -29 30 -37 -24
-13 -20 -34 11 -56 18 -13 27 -29 28 -48 0 -21 5 -29 17 -28 9 1 14 -4 12 -11
-3 -7 2 -15 11 -19 9 -3 13 -10 10 -16 -3 -5 -1 -10 5 -10 8 0 10 -9 6 -25
l-6 -25 75 0 c46 0 75 4 75 11 0 5 4 8 9 5 5 -3 11 1 14 8 3 8 2 17 -4 20 -5
2 -4 3 3 2 7 -2 12 -9 11 -15 -2 -6 4 -11 12 -11 8 0 15 -4 15 -10 0 -7 718
-10 2135 -10 2025 0 2136 1 2142 18 3 9 16 26 27 37 30 28 61 78 58 93 -2 6 2
12 8 12 6 0 8 4 5 10 -3 5 -19 10 -36 10 -16 0 -29 5 -29 10 0 6 14 10 30 10
20 0 30 5 30 15 0 8 -5 15 -11 15 -5 0 -7 4 -4 10 3 5 22 10 42 10 20 0 34 3
30 6 -3 3 5 18 19 32 13 15 24 30 24 34 0 5 9 8 19 8 22 0 34 14 38 45 2 10 9
23 16 27 9 6 7 12 -6 22 -18 14 -7 33 12 22 5 -3 12 6 15 19 4 14 10 24 14 21
4 -2 7 12 7 32 0 28 4 38 19 40 10 2 16 0 12 -6 -3 -5 2 -16 12 -23 15 -13 16
-12 4 3 -9 11 -10 18 -2 23 5 3 10 16 10 27 0 11 11 31 24 43 14 13 23 25 20
28 -7 7 -18 96 -16 127 1 14 2 38 2 53 1 15 5 25 10 22 6 -3 7 1 4 9 -3 9 -1
16 5 16 16 0 13 14 -7 36 -11 12 -17 30 -15 46 2 18 -4 34 -22 52 -22 22 -32
61 -26 99 0 4 -3 7 -9 7 -5 0 -7 7 -3 16 3 9 0 20 -7 24 -8 5 -14 27 -15 49
-1 34 2 41 17 41 18 0 18 1 -2 30 -19 26 -19 31 -6 36 23 9 20 23 -9 46 -14
11 -25 26 -25 34 0 22 -50 113 -70 127 -10 7 -16 21 -13 36 2 14 0 27 -5 30
-11 8 -52 67 -52 76 0 3 6 3 13 -1 6 -4 1 5 -12 19 -14 15 -21 27 -16 27 4 0
-4 10 -19 21 -15 12 -25 23 -22 26 4 5 -12 25 -66 80 -39 40 -51 35 -91 -34z"/>
<path d="M9949 668 c-1 -7 -2 -125 -3 -263 l-1 -250 25 -21 c22 -20 25 -20 37
-5 7 9 13 24 13 34 0 9 4 17 8 17 4 0 9 12 10 28 1 15 10 33 19 40 16 12 14
14 -17 16 -11 1 -15 13 -15 41 0 23 -6 45 -14 51 -9 7 -12 20 -8 36 5 17 2 30
-8 38 -14 12 -14 15 0 30 12 13 13 19 4 22 -21 7 -18 52 5 71 20 17 20 18 1
15 -16 -2 -22 5 -29 40 -6 23 -13 42 -18 42 -4 0 -5 7 -2 15 4 8 3 15 0 15 -3
0 -6 -6 -7 -12z"/>
<path d="M3674 392 c-33 -13 -66 -30 -74 -37 -25 -21 -119 -67 -153 -74 -30
-6 -32 -10 -32 -47 0 -21 -2 -41 -5 -44 -14 -14 -30 -52 -25 -60 4 -6 -1 -10
-10 -10 -11 0 -15 -5 -11 -15 3 -8 1 -15 -4 -15 -6 0 -10 -8 -10 -19 0 -10 -7
-24 -15 -31 -8 -7 -13 -16 -10 -20 3 -5 -3 -11 -12 -13 -10 -3 -4 -5 14 -6 23
-1 35 5 43 19 6 11 15 18 20 15 12 -7 44 41 36 54 -3 5 1 12 10 15 8 3 13 10
10 14 -3 5 17 30 44 56 27 26 48 52 47 58 -1 6 5 13 13 15 13 4 13 3 0 -6 -8
-6 -11 -11 -7 -11 12 0 57 36 52 42 -2 2 6 10 18 17 21 13 21 13 8 -5 -7 -10
4 -1 24 21 21 22 34 33 30 26 -5 -9 5 -6 22 7 17 12 36 22 43 22 6 0 9 4 6 9
-4 5 2 7 11 5 10 -3 32 6 48 20 l30 24 -51 -1 c-29 -1 -78 -13 -110 -25z"/>
</g>
</svg>
